<?xml version="1.0" encoding="utf-8" standalone="no"?>
<!DOCTYPE svg PUBLIC "-//W3C//DTD SVG 1.1//EN"
  "http://www.w3.org/Graphics/SVG/1.1/DTD/svg11.dtd">
<svg xmlns:xlink="http://www.w3.org/1999/xlink" width="460.8pt" height="345.6pt" viewBox="0 0 460.8 345.6" xmlns="http://www.w3.org/2000/svg" version="1.1">
 <metadata>
  <rdf:RDF xmlns:dc="http://purl.org/dc/elements/1.1/" xmlns:cc="http://creativecommons.org/ns#" xmlns:rdf="http://www.w3.org/1999/02/22-rdf-syntax-ns#">
   <cc:Work>
    <dc:type rdf:resource="http://purl.org/dc/dcmitype/StillImage"/>
    <dc:date>2024-05-11T21:12:49.687037</dc:date>
    <dc:format>image/svg+xml</dc:format>
    <dc:creator>
     <cc:Agent>
      <dc:title>Matplotlib v3.8.3, https://matplotlib.org/</dc:title>
     </cc:Agent>
    </dc:creator>
   </cc:Work>
  </rdf:RDF>
 </metadata>
 <defs>
  <style type="text/css">*{stroke-linejoin: round; stroke-linecap: butt}</style>
 </defs>
 <g id="figure_1">
  <g id="patch_1">
   <path d="M 0 345.6 
L 460.8 345.6 
L 460.8 0 
L 0 0 
z
" style="fill: #ffffff"/>
  </g>
  <g id="axes_1">
   <g id="patch_2">
    <path d="M 57.6 307.584 
L 414.72 307.584 
L 414.72 41.472 
L 57.6 41.472 
z
" style="fill: #ffffff"/>
   </g>
   <g id="PolyCollection_1">
    <path d="M 73.832727 213.165176 
L 73.832727 307.584 
L 77.697662 307.584 
L 81.562597 307.584 
L 85.427532 307.584 
L 89.292468 307.584 
L 93.157403 307.584 
L 97.022338 307.584 
L 100.887273 307.584 
L 104.752208 307.584 
L 108.617143 307.584 
L 112.482078 307.584 
L 116.347013 307.584 
L 120.211948 307.584 
L 124.076883 307.584 
L 127.941818 307.584 
L 131.806753 307.584 
L 135.671688 307.584 
L 139.536623 307.584 
L 143.401558 307.584 
L 147.266494 307.584 
L 151.131429 307.584 
L 154.996364 307.584 
L 158.861299 307.584 
L 162.726234 307.584 
L 166.591169 307.584 
L 170.456104 307.584 
L 174.321039 307.584 
L 178.185974 307.584 
L 182.050909 307.584 
L 185.915844 307.584 
L 189.780779 307.584 
L 193.645714 307.584 
L 197.510649 307.584 
L 201.375584 307.584 
L 205.240519 307.584 
L 209.105455 307.584 
L 212.97039 307.584 
L 216.835325 307.584 
L 220.70026 307.584 
L 224.565195 307.584 
L 228.43013 307.584 
L 232.295065 307.584 
L 236.16 307.584 
L 240.024935 307.584 
L 243.88987 307.584 
L 247.754805 307.584 
L 251.61974 307.584 
L 255.484675 307.584 
L 259.34961 307.584 
L 263.214545 307.584 
L 267.079481 307.584 
L 270.944416 307.584 
L 274.809351 307.584 
L 278.674286 307.584 
L 282.539221 307.584 
L 286.404156 307.584 
L 290.269091 307.584 
L 294.134026 307.584 
L 297.998961 307.584 
L 301.863896 307.584 
L 305.728831 307.584 
L 309.593766 307.584 
L 313.458701 307.584 
L 317.323636 307.584 
L 321.188571 307.584 
L 325.053506 307.584 
L 328.918442 307.584 
L 332.783377 307.584 
L 336.648312 307.584 
L 340.513247 307.584 
L 344.378182 307.584 
L 348.243117 307.584 
L 352.108052 307.584 
L 355.972987 307.584 
L 359.837922 307.584 
L 363.702857 307.584 
L 367.567792 307.584 
L 371.432727 307.584 
L 375.297662 307.584 
L 379.162597 307.584 
L 383.027532 307.584 
L 386.892468 307.584 
L 390.757403 307.584 
L 394.622338 307.584 
L 398.487273 307.584 
L 398.487273 307.584 
L 398.487273 307.584 
L 394.622338 307.584 
L 390.757403 307.584 
L 386.892468 307.584 
L 383.027532 307.584 
L 379.162597 307.584 
L 375.297662 307.584 
L 371.432727 307.584 
L 367.567792 307.584 
L 363.702857 307.584 
L 359.837922 307.584 
L 355.972987 307.584 
L 352.108052 307.584 
L 348.243117 307.584 
L 344.378182 307.584 
L 340.513247 307.584 
L 336.648312 307.584 
L 332.783377 307.584 
L 328.918442 307.584 
L 325.053506 307.584 
L 321.188571 307.584 
L 317.323636 307.584 
L 313.458701 307.584 
L 309.593766 307.584 
L 305.728831 307.584 
L 301.863896 307.584 
L 297.998961 307.584 
L 294.134026 307.584 
L 290.269091 307.584 
L 286.404156 307.584 
L 282.539221 307.584 
L 278.674286 307.584 
L 274.809351 307.584 
L 270.944416 307.584 
L 267.079481 307.584 
L 263.214545 307.584 
L 259.34961 307.584 
L 255.484675 307.584 
L 251.61974 307.584 
L 247.754805 307.584 
L 243.88987 307.584 
L 240.024935 307.584 
L 236.16 307.584 
L 232.295065 307.584 
L 228.43013 307.584 
L 224.565195 307.584 
L 220.70026 307.584 
L 216.835325 277.767529 
L 212.97039 279.424 
L 209.105455 277.767529 
L 205.240519 279.424 
L 201.375584 281.080471 
L 197.510649 284.393412 
L 193.645714 282.736941 
L 189.780779 281.080471 
L 185.915844 279.424 
L 182.050909 277.767529 
L 178.185974 281.080471 
L 174.321039 284.393412 
L 170.456104 282.736941 
L 166.591169 281.080471 
L 162.726234 282.736941 
L 158.861299 284.393412 
L 154.996364 282.736941 
L 151.131429 284.393412 
L 147.266494 282.736941 
L 143.401558 281.080471 
L 139.536623 279.424 
L 135.671688 276.111059 
L 131.806753 274.454588 
L 127.941818 274.454588 
L 124.076883 272.798118 
L 120.211948 276.111059 
L 116.347013 281.080471 
L 112.482078 286.049882 
L 108.617143 266.172235 
L 104.752208 261.202824 
L 100.887273 264.515765 
L 97.022338 272.798118 
L 93.157403 276.111059 
L 89.292468 279.424 
L 85.427532 284.393412 
L 81.562597 272.798118 
L 77.697662 287.706353 
L 73.832727 213.165176 
z
" clip-path="url(#p657c22858f)" style="fill: #1f77b4"/>
   </g>
   <g id="PolyCollection_2">
    <path d="M 73.832727 102.181647 
L 73.832727 213.165176 
L 77.697662 287.706353 
L 81.562597 272.798118 
L 85.427532 284.393412 
L 89.292468 279.424 
L 93.157403 276.111059 
L 97.022338 272.798118 
L 100.887273 264.515765 
L 104.752208 261.202824 
L 108.617143 266.172235 
L 112.482078 286.049882 
L 116.347013 281.080471 
L 120.211948 276.111059 
L 124.076883 272.798118 
L 127.941818 274.454588 
L 131.806753 274.454588 
L 135.671688 276.111059 
L 139.536623 279.424 
L 143.401558 281.080471 
L 147.266494 282.736941 
L 151.131429 284.393412 
L 154.996364 282.736941 
L 158.861299 284.393412 
L 162.726234 282.736941 
L 166.591169 281.080471 
L 170.456104 282.736941 
L 174.321039 284.393412 
L 178.185974 281.080471 
L 182.050909 277.767529 
L 185.915844 279.424 
L 189.780779 281.080471 
L 193.645714 282.736941 
L 197.510649 284.393412 
L 201.375584 281.080471 
L 205.240519 279.424 
L 209.105455 277.767529 
L 212.97039 279.424 
L 216.835325 277.767529 
L 220.70026 307.584 
L 224.565195 307.584 
L 228.43013 307.584 
L 232.295065 307.584 
L 236.16 307.584 
L 240.024935 307.584 
L 243.88987 307.584 
L 247.754805 307.584 
L 251.61974 307.584 
L 255.484675 307.584 
L 259.34961 307.584 
L 263.214545 307.584 
L 267.079481 307.584 
L 270.944416 307.584 
L 274.809351 307.584 
L 278.674286 307.584 
L 282.539221 307.584 
L 286.404156 307.584 
L 290.269091 307.584 
L 294.134026 307.584 
L 297.998961 307.584 
L 301.863896 307.584 
L 305.728831 307.584 
L 309.593766 307.584 
L 313.458701 307.584 
L 317.323636 307.584 
L 321.188571 307.584 
L 325.053506 307.584 
L 328.918442 307.584 
L 332.783377 307.584 
L 336.648312 307.584 
L 340.513247 307.584 
L 344.378182 307.584 
L 348.243117 307.584 
L 352.108052 307.584 
L 355.972987 307.584 
L 359.837922 307.584 
L 363.702857 307.584 
L 367.567792 307.584 
L 371.432727 307.584 
L 375.297662 307.584 
L 379.162597 307.584 
L 383.027532 307.584 
L 386.892468 307.584 
L 390.757403 307.584 
L 394.622338 307.584 
L 398.487273 307.584 
L 398.487273 307.584 
L 398.487273 307.584 
L 394.622338 307.584 
L 390.757403 307.584 
L 386.892468 307.584 
L 383.027532 307.584 
L 379.162597 307.584 
L 375.297662 307.584 
L 371.432727 307.584 
L 367.567792 307.584 
L 363.702857 307.584 
L 359.837922 307.584 
L 355.972987 307.584 
L 352.108052 307.584 
L 348.243117 307.584 
L 344.378182 307.584 
L 340.513247 307.584 
L 336.648312 307.584 
L 332.783377 307.584 
L 328.918442 307.584 
L 325.053506 307.584 
L 321.188571 307.584 
L 317.323636 307.584 
L 313.458701 307.584 
L 309.593766 307.584 
L 305.728831 307.584 
L 301.863896 307.584 
L 297.998961 307.584 
L 294.134026 307.584 
L 290.269091 307.584 
L 286.404156 307.584 
L 282.539221 307.584 
L 278.674286 307.584 
L 274.809351 307.584 
L 270.944416 307.584 
L 267.079481 307.584 
L 263.214545 307.584 
L 259.34961 307.584 
L 255.484675 307.584 
L 251.61974 307.584 
L 247.754805 307.584 
L 243.88987 307.584 
L 240.024935 307.584 
L 236.16 307.584 
L 232.295065 307.584 
L 228.43013 307.584 
L 224.565195 307.584 
L 220.70026 307.584 
L 216.835325 277.767529 
L 212.97039 279.424 
L 209.105455 277.767529 
L 205.240519 279.424 
L 201.375584 281.080471 
L 197.510649 257.889882 
L 193.645714 257.889882 
L 189.780779 254.576941 
L 185.915844 251.264 
L 182.050909 247.951059 
L 178.185974 251.264 
L 174.321039 259.546353 
L 170.456104 256.233412 
L 166.591169 256.233412 
L 162.726234 257.889882 
L 158.861299 257.889882 
L 154.996364 257.889882 
L 151.131429 261.202824 
L 147.266494 256.233412 
L 143.401558 252.920471 
L 139.536623 251.264 
L 135.671688 246.294588 
L 131.806753 241.325176 
L 127.941818 241.325176 
L 124.076883 238.012235 
L 120.211948 242.981647 
L 116.347013 249.607529 
L 112.482078 259.546353 
L 108.617143 234.699294 
L 104.752208 224.760471 
L 100.887273 223.104 
L 97.022338 224.760471 
L 93.157403 233.042824 
L 89.292468 236.355765 
L 85.427532 238.012235 
L 81.562597 239.668706 
L 77.697662 254.576941 
L 73.832727 102.181647 
z
" clip-path="url(#p657c22858f)" style="fill: #ff7f0e"/>
   </g>
   <g id="PolyCollection_3">
    <path d="M 73.832727 83.960471 
L 73.832727 102.181647 
L 77.697662 254.576941 
L 81.562597 239.668706 
L 85.427532 238.012235 
L 89.292468 236.355765 
L 93.157403 233.042824 
L 97.022338 224.760471 
L 100.887273 223.104 
L 104.752208 224.760471 
L 108.617143 234.699294 
L 112.482078 259.546353 
L 116.347013 249.607529 
L 120.211948 242.981647 
L 124.076883 238.012235 
L 127.941818 241.325176 
L 131.806753 241.325176 
L 135.671688 246.294588 
L 139.536623 251.264 
L 143.401558 252.920471 
L 147.266494 256.233412 
L 151.131429 261.202824 
L 154.996364 257.889882 
L 158.861299 257.889882 
L 162.726234 257.889882 
L 166.591169 256.233412 
L 170.456104 256.233412 
L 174.321039 259.546353 
L 178.185974 251.264 
L 182.050909 247.951059 
L 185.915844 251.264 
L 189.780779 254.576941 
L 193.645714 257.889882 
L 197.510649 257.889882 
L 201.375584 281.080471 
L 205.240519 279.424 
L 209.105455 277.767529 
L 212.97039 279.424 
L 216.835325 277.767529 
L 220.70026 307.584 
L 224.565195 307.584 
L 228.43013 307.584 
L 232.295065 307.584 
L 236.16 307.584 
L 240.024935 307.584 
L 243.88987 307.584 
L 247.754805 307.584 
L 251.61974 307.584 
L 255.484675 307.584 
L 259.34961 307.584 
L 263.214545 307.584 
L 267.079481 307.584 
L 270.944416 307.584 
L 274.809351 307.584 
L 278.674286 307.584 
L 282.539221 307.584 
L 286.404156 307.584 
L 290.269091 307.584 
L 294.134026 307.584 
L 297.998961 307.584 
L 301.863896 307.584 
L 305.728831 307.584 
L 309.593766 307.584 
L 313.458701 307.584 
L 317.323636 307.584 
L 321.188571 307.584 
L 325.053506 307.584 
L 328.918442 307.584 
L 332.783377 307.584 
L 336.648312 307.584 
L 340.513247 307.584 
L 344.378182 307.584 
L 348.243117 307.584 
L 352.108052 307.584 
L 355.972987 307.584 
L 359.837922 307.584 
L 363.702857 307.584 
L 367.567792 307.584 
L 371.432727 307.584 
L 375.297662 307.584 
L 379.162597 307.584 
L 383.027532 307.584 
L 386.892468 307.584 
L 390.757403 307.584 
L 394.622338 307.584 
L 398.487273 307.584 
L 398.487273 307.584 
L 398.487273 307.584 
L 394.622338 307.584 
L 390.757403 307.584 
L 386.892468 307.584 
L 383.027532 307.584 
L 379.162597 307.584 
L 375.297662 307.584 
L 371.432727 307.584 
L 367.567792 307.584 
L 363.702857 307.584 
L 359.837922 307.584 
L 355.972987 307.584 
L 352.108052 307.584 
L 348.243117 307.584 
L 344.378182 307.584 
L 340.513247 307.584 
L 336.648312 307.584 
L 332.783377 307.584 
L 328.918442 307.584 
L 325.053506 307.584 
L 321.188571 307.584 
L 317.323636 307.584 
L 313.458701 307.584 
L 309.593766 307.584 
L 305.728831 307.584 
L 301.863896 307.584 
L 297.998961 307.584 
L 294.134026 307.584 
L 290.269091 307.584 
L 286.404156 307.584 
L 282.539221 307.584 
L 278.674286 307.584 
L 274.809351 307.584 
L 270.944416 307.584 
L 267.079481 307.584 
L 263.214545 307.584 
L 259.34961 307.584 
L 255.484675 307.584 
L 251.61974 307.584 
L 247.754805 307.584 
L 243.88987 307.584 
L 240.024935 307.584 
L 236.16 307.584 
L 232.295065 307.584 
L 228.43013 307.584 
L 224.565195 307.584 
L 220.70026 307.584 
L 216.835325 277.767529 
L 212.97039 279.424 
L 209.105455 277.767529 
L 205.240519 279.424 
L 201.375584 281.080471 
L 197.510649 257.889882 
L 193.645714 257.889882 
L 189.780779 254.576941 
L 185.915844 251.264 
L 182.050909 247.951059 
L 178.185974 251.264 
L 174.321039 234.699294 
L 170.456104 229.729882 
L 166.591169 231.386353 
L 162.726234 234.699294 
L 158.861299 233.042824 
L 154.996364 231.386353 
L 151.131429 238.012235 
L 147.266494 231.386353 
L 143.401558 229.729882 
L 139.536623 216.478118 
L 135.671688 201.569882 
L 131.806753 209.852235 
L 127.941818 209.852235 
L 124.076883 218.134588 
L 120.211948 204.882824 
L 116.347013 213.165176 
L 112.482078 224.760471 
L 108.617143 201.569882 
L 104.752208 193.287529 
L 100.887273 188.318118 
L 97.022338 191.631059 
L 93.157403 203.226353 
L 89.292468 213.165176 
L 85.427532 226.416941 
L 81.562597 186.661647 
L 77.697662 181.692235 
L 73.832727 83.960471 
z
" clip-path="url(#p657c22858f)" style="fill: #2ca02c"/>
   </g>
   <g id="PolyCollection_4">
    <path d="M 73.832727 69.052235 
L 73.832727 83.960471 
L 77.697662 181.692235 
L 81.562597 186.661647 
L 85.427532 226.416941 
L 89.292468 213.165176 
L 93.157403 203.226353 
L 97.022338 191.631059 
L 100.887273 188.318118 
L 104.752208 193.287529 
L 108.617143 201.569882 
L 112.482078 224.760471 
L 116.347013 213.165176 
L 120.211948 204.882824 
L 124.076883 218.134588 
L 127.941818 209.852235 
L 131.806753 209.852235 
L 135.671688 201.569882 
L 139.536623 216.478118 
L 143.401558 229.729882 
L 147.266494 231.386353 
L 151.131429 238.012235 
L 154.996364 231.386353 
L 158.861299 233.042824 
L 162.726234 234.699294 
L 166.591169 231.386353 
L 170.456104 229.729882 
L 174.321039 234.699294 
L 178.185974 251.264 
L 182.050909 247.951059 
L 185.915844 251.264 
L 189.780779 254.576941 
L 193.645714 257.889882 
L 197.510649 257.889882 
L 201.375584 281.080471 
L 205.240519 279.424 
L 209.105455 277.767529 
L 212.97039 279.424 
L 216.835325 277.767529 
L 220.70026 307.584 
L 224.565195 307.584 
L 228.43013 307.584 
L 232.295065 307.584 
L 236.16 307.584 
L 240.024935 307.584 
L 243.88987 307.584 
L 247.754805 307.584 
L 251.61974 307.584 
L 255.484675 307.584 
L 259.34961 307.584 
L 263.214545 307.584 
L 267.079481 307.584 
L 270.944416 307.584 
L 274.809351 307.584 
L 278.674286 307.584 
L 282.539221 307.584 
L 286.404156 307.584 
L 290.269091 307.584 
L 294.134026 307.584 
L 297.998961 307.584 
L 301.863896 307.584 
L 305.728831 307.584 
L 309.593766 307.584 
L 313.458701 307.584 
L 317.323636 307.584 
L 321.188571 307.584 
L 325.053506 307.584 
L 328.918442 307.584 
L 332.783377 307.584 
L 336.648312 307.584 
L 340.513247 307.584 
L 344.378182 307.584 
L 348.243117 307.584 
L 352.108052 307.584 
L 355.972987 307.584 
L 359.837922 307.584 
L 363.702857 307.584 
L 367.567792 307.584 
L 371.432727 307.584 
L 375.297662 307.584 
L 379.162597 307.584 
L 383.027532 307.584 
L 386.892468 307.584 
L 390.757403 307.584 
L 394.622338 307.584 
L 398.487273 307.584 
L 398.487273 281.080471 
L 398.487273 281.080471 
L 394.622338 279.424 
L 390.757403 281.080471 
L 386.892468 277.767529 
L 383.027532 274.454588 
L 379.162597 269.485176 
L 375.297662 266.172235 
L 371.432727 267.828706 
L 367.567792 266.172235 
L 363.702857 264.515765 
L 359.837922 262.859294 
L 355.972987 271.141647 
L 352.108052 269.485176 
L 348.243117 271.141647 
L 344.378182 269.485176 
L 340.513247 271.141647 
L 336.648312 269.485176 
L 332.783377 271.141647 
L 328.918442 271.141647 
L 325.053506 274.454588 
L 321.188571 276.111059 
L 317.323636 274.454588 
L 313.458701 279.424 
L 309.593766 277.767529 
L 305.728831 279.424 
L 301.863896 277.767529 
L 297.998961 279.424 
L 294.134026 277.767529 
L 290.269091 276.111059 
L 286.404156 274.454588 
L 282.539221 272.798118 
L 278.674286 274.454588 
L 274.809351 276.111059 
L 270.944416 274.454588 
L 267.079481 276.111059 
L 263.214545 277.767529 
L 259.34961 281.080471 
L 255.484675 276.111059 
L 251.61974 274.454588 
L 247.754805 272.798118 
L 243.88987 272.798118 
L 240.024935 271.141647 
L 236.16 267.828706 
L 232.295065 269.485176 
L 228.43013 271.141647 
L 224.565195 276.111059 
L 220.70026 274.454588 
L 216.835325 247.951059 
L 212.97039 251.264 
L 209.105455 247.951059 
L 205.240519 251.264 
L 201.375584 251.264 
L 197.510649 231.386353 
L 193.645714 233.042824 
L 189.780779 228.073412 
L 185.915844 223.104 
L 182.050909 218.134588 
L 178.185974 221.447529 
L 174.321039 208.195765 
L 170.456104 201.569882 
L 166.591169 204.882824 
L 162.726234 209.852235 
L 158.861299 206.539294 
L 154.996364 206.539294 
L 151.131429 211.508706 
L 147.266494 204.882824 
L 143.401558 201.569882 
L 139.536623 186.661647 
L 135.671688 170.096941 
L 131.806753 176.722824 
L 127.941818 176.722824 
L 124.076883 180.035765 
L 120.211948 163.471059 
L 116.347013 165.127529 
L 112.482078 168.440471 
L 108.617143 165.127529 
L 104.752208 161.814588 
L 100.887273 153.532235 
L 97.022338 155.188706 
L 93.157403 160.158118 
L 89.292468 163.471059 
L 85.427532 175.066353 
L 81.562597 146.906353 
L 77.697662 141.936941 
L 73.832727 69.052235 
z
" clip-path="url(#p657c22858f)" style="fill: #d62728"/>
   </g>
   <g id="PolyCollection_5">
    <path d="M 73.832727 64.082824 
L 73.832727 69.052235 
L 77.697662 141.936941 
L 81.562597 146.906353 
L 85.427532 175.066353 
L 89.292468 163.471059 
L 93.157403 160.158118 
L 97.022338 155.188706 
L 100.887273 153.532235 
L 104.752208 161.814588 
L 108.617143 165.127529 
L 112.482078 168.440471 
L 116.347013 165.127529 
L 120.211948 163.471059 
L 124.076883 180.035765 
L 127.941818 176.722824 
L 131.806753 176.722824 
L 135.671688 170.096941 
L 139.536623 186.661647 
L 143.401558 201.569882 
L 147.266494 204.882824 
L 151.131429 211.508706 
L 154.996364 206.539294 
L 158.861299 206.539294 
L 162.726234 209.852235 
L 166.591169 204.882824 
L 170.456104 201.569882 
L 174.321039 208.195765 
L 178.185974 221.447529 
L 182.050909 218.134588 
L 185.915844 223.104 
L 189.780779 228.073412 
L 193.645714 233.042824 
L 197.510649 231.386353 
L 201.375584 251.264 
L 205.240519 251.264 
L 209.105455 247.951059 
L 212.97039 251.264 
L 216.835325 247.951059 
L 220.70026 274.454588 
L 224.565195 276.111059 
L 228.43013 271.141647 
L 232.295065 269.485176 
L 236.16 267.828706 
L 240.024935 271.141647 
L 243.88987 272.798118 
L 247.754805 272.798118 
L 251.61974 274.454588 
L 255.484675 276.111059 
L 259.34961 281.080471 
L 263.214545 277.767529 
L 267.079481 276.111059 
L 270.944416 274.454588 
L 274.809351 276.111059 
L 278.674286 274.454588 
L 282.539221 272.798118 
L 286.404156 274.454588 
L 290.269091 276.111059 
L 294.134026 277.767529 
L 297.998961 279.424 
L 301.863896 277.767529 
L 305.728831 279.424 
L 309.593766 277.767529 
L 313.458701 279.424 
L 317.323636 274.454588 
L 321.188571 276.111059 
L 325.053506 274.454588 
L 328.918442 271.141647 
L 332.783377 271.141647 
L 336.648312 269.485176 
L 340.513247 271.141647 
L 344.378182 269.485176 
L 348.243117 271.141647 
L 352.108052 269.485176 
L 355.972987 271.141647 
L 359.837922 262.859294 
L 363.702857 264.515765 
L 367.567792 266.172235 
L 371.432727 267.828706 
L 375.297662 266.172235 
L 379.162597 269.485176 
L 383.027532 274.454588 
L 386.892468 277.767529 
L 390.757403 281.080471 
L 394.622338 279.424 
L 398.487273 281.080471 
L 398.487273 249.607529 
L 398.487273 249.607529 
L 394.622338 249.607529 
L 390.757403 249.607529 
L 386.892468 244.638118 
L 383.027532 238.012235 
L 379.162597 234.699294 
L 375.297662 233.042824 
L 371.432727 246.294588 
L 367.567792 233.042824 
L 363.702857 228.073412 
L 359.837922 239.668706 
L 355.972987 251.264 
L 352.108052 231.386353 
L 348.243117 234.699294 
L 344.378182 231.386353 
L 340.513247 234.699294 
L 336.648312 231.386353 
L 332.783377 234.699294 
L 328.918442 234.699294 
L 325.053506 241.325176 
L 321.188571 244.638118 
L 317.323636 241.325176 
L 313.458701 249.607529 
L 309.593766 249.607529 
L 305.728831 249.607529 
L 301.863896 246.294588 
L 297.998961 249.607529 
L 294.134026 246.294588 
L 290.269091 242.981647 
L 286.404156 242.981647 
L 282.539221 239.668706 
L 278.674286 239.668706 
L 274.809351 242.981647 
L 270.944416 239.668706 
L 267.079481 239.668706 
L 263.214545 242.981647 
L 259.34961 244.638118 
L 255.484675 241.325176 
L 251.61974 241.325176 
L 247.754805 241.325176 
L 243.88987 239.668706 
L 240.024935 238.012235 
L 236.16 233.042824 
L 232.295065 233.042824 
L 228.43013 233.042824 
L 224.565195 242.981647 
L 220.70026 242.981647 
L 216.835325 219.791059 
L 212.97039 221.447529 
L 209.105455 219.791059 
L 205.240519 221.447529 
L 201.375584 219.791059 
L 197.510649 203.226353 
L 193.645714 206.539294 
L 189.780779 199.913412 
L 185.915844 193.287529 
L 182.050909 186.661647 
L 178.185974 193.287529 
L 174.321039 183.348706 
L 170.456104 175.066353 
L 166.591169 180.035765 
L 162.726234 183.348706 
L 158.861299 181.692235 
L 154.996364 180.035765 
L 151.131429 186.661647 
L 147.266494 173.409882 
L 143.401558 156.845176 
L 139.536623 153.532235 
L 135.671688 135.311059 
L 131.806753 140.280471 
L 127.941818 140.280471 
L 124.076883 141.936941 
L 120.211948 125.372235 
L 116.347013 123.715765 
L 112.482078 122.059294 
L 108.617143 118.746353 
L 104.752208 122.059294 
L 100.887273 118.746353 
L 97.022338 115.433412 
L 93.157403 120.402824 
L 89.292468 118.746353 
L 85.427532 133.654588 
L 81.562597 105.494588 
L 77.697662 98.868706 
L 73.832727 64.082824 
z
" clip-path="url(#p657c22858f)" style="fill: #9467bd"/>
   </g>
   <g id="PolyCollection_6">
    <path d="M 73.832727 59.113412 
L 73.832727 64.082824 
L 77.697662 98.868706 
L 81.562597 105.494588 
L 85.427532 133.654588 
L 89.292468 118.746353 
L 93.157403 120.402824 
L 97.022338 115.433412 
L 100.887273 118.746353 
L 104.752208 122.059294 
L 108.617143 118.746353 
L 112.482078 122.059294 
L 116.347013 123.715765 
L 120.211948 125.372235 
L 124.076883 141.936941 
L 127.941818 140.280471 
L 131.806753 140.280471 
L 135.671688 135.311059 
L 139.536623 153.532235 
L 143.401558 156.845176 
L 147.266494 173.409882 
L 151.131429 186.661647 
L 154.996364 180.035765 
L 158.861299 181.692235 
L 162.726234 183.348706 
L 166.591169 180.035765 
L 170.456104 175.066353 
L 174.321039 183.348706 
L 178.185974 193.287529 
L 182.050909 186.661647 
L 185.915844 193.287529 
L 189.780779 199.913412 
L 193.645714 206.539294 
L 197.510649 203.226353 
L 201.375584 219.791059 
L 205.240519 221.447529 
L 209.105455 219.791059 
L 212.97039 221.447529 
L 216.835325 219.791059 
L 220.70026 242.981647 
L 224.565195 242.981647 
L 228.43013 233.042824 
L 232.295065 233.042824 
L 236.16 233.042824 
L 240.024935 238.012235 
L 243.88987 239.668706 
L 247.754805 241.325176 
L 251.61974 241.325176 
L 255.484675 241.325176 
L 259.34961 244.638118 
L 263.214545 242.981647 
L 267.079481 239.668706 
L 270.944416 239.668706 
L 274.809351 242.981647 
L 278.674286 239.668706 
L 282.539221 239.668706 
L 286.404156 242.981647 
L 290.269091 242.981647 
L 294.134026 246.294588 
L 297.998961 249.607529 
L 301.863896 246.294588 
L 305.728831 249.607529 
L 309.593766 249.607529 
L 313.458701 249.607529 
L 317.323636 241.325176 
L 321.188571 244.638118 
L 325.053506 241.325176 
L 328.918442 234.699294 
L 332.783377 234.699294 
L 336.648312 231.386353 
L 340.513247 234.699294 
L 344.378182 231.386353 
L 348.243117 234.699294 
L 352.108052 231.386353 
L 355.972987 251.264 
L 359.837922 239.668706 
L 363.702857 228.073412 
L 367.567792 233.042824 
L 371.432727 246.294588 
L 375.297662 233.042824 
L 379.162597 234.699294 
L 383.027532 238.012235 
L 386.892468 244.638118 
L 390.757403 249.607529 
L 394.622338 249.607529 
L 398.487273 249.607529 
L 398.487273 249.607529 
L 398.487273 249.607529 
L 394.622338 249.607529 
L 390.757403 249.607529 
L 386.892468 244.638118 
L 383.027532 238.012235 
L 379.162597 234.699294 
L 375.297662 233.042824 
L 371.432727 246.294588 
L 367.567792 233.042824 
L 363.702857 228.073412 
L 359.837922 239.668706 
L 355.972987 251.264 
L 352.108052 231.386353 
L 348.243117 234.699294 
L 344.378182 231.386353 
L 340.513247 234.699294 
L 336.648312 231.386353 
L 332.783377 234.699294 
L 328.918442 234.699294 
L 325.053506 241.325176 
L 321.188571 244.638118 
L 317.323636 241.325176 
L 313.458701 249.607529 
L 309.593766 249.607529 
L 305.728831 249.607529 
L 301.863896 246.294588 
L 297.998961 249.607529 
L 294.134026 246.294588 
L 290.269091 242.981647 
L 286.404156 242.981647 
L 282.539221 239.668706 
L 278.674286 239.668706 
L 274.809351 242.981647 
L 270.944416 239.668706 
L 267.079481 239.668706 
L 263.214545 242.981647 
L 259.34961 244.638118 
L 255.484675 241.325176 
L 251.61974 241.325176 
L 247.754805 241.325176 
L 243.88987 239.668706 
L 240.024935 238.012235 
L 236.16 233.042824 
L 232.295065 233.042824 
L 228.43013 233.042824 
L 224.565195 242.981647 
L 220.70026 242.981647 
L 216.835325 219.791059 
L 212.97039 221.447529 
L 209.105455 219.791059 
L 205.240519 221.447529 
L 201.375584 219.791059 
L 197.510649 203.226353 
L 193.645714 206.539294 
L 189.780779 199.913412 
L 185.915844 193.287529 
L 182.050909 186.661647 
L 178.185974 193.287529 
L 174.321039 183.348706 
L 170.456104 175.066353 
L 166.591169 180.035765 
L 162.726234 183.348706 
L 158.861299 181.692235 
L 154.996364 180.035765 
L 151.131429 171.753412 
L 147.266494 165.127529 
L 143.401558 148.562824 
L 139.536623 136.967529 
L 135.671688 131.998118 
L 131.806753 117.089882 
L 127.941818 122.059294 
L 124.076883 125.372235 
L 120.211948 92.242824 
L 116.347013 92.242824 
L 112.482078 93.899294 
L 108.617143 88.929882 
L 104.752208 93.899294 
L 100.887273 92.242824 
L 97.022338 93.899294 
L 93.157403 88.929882 
L 89.292468 80.647529 
L 85.427532 62.426353 
L 81.562597 59.113412 
L 77.697662 59.113412 
L 73.832727 59.113412 
z
" clip-path="url(#p657c22858f)" style="fill: #8c564b"/>
   </g>
   <g id="PolyCollection_7">
    <path d="M 73.832727 59.113412 
L 73.832727 59.113412 
L 77.697662 59.113412 
L 81.562597 59.113412 
L 85.427532 62.426353 
L 89.292468 80.647529 
L 93.157403 88.929882 
L 97.022338 93.899294 
L 100.887273 92.242824 
L 104.752208 93.899294 
L 108.617143 88.929882 
L 112.482078 93.899294 
L 116.347013 92.242824 
L 120.211948 92.242824 
L 124.076883 125.372235 
L 127.941818 122.059294 
L 131.806753 117.089882 
L 135.671688 131.998118 
L 139.536623 136.967529 
L 143.401558 148.562824 
L 147.266494 165.127529 
L 151.131429 171.753412 
L 154.996364 180.035765 
L 158.861299 181.692235 
L 162.726234 183.348706 
L 166.591169 180.035765 
L 170.456104 175.066353 
L 174.321039 183.348706 
L 178.185974 193.287529 
L 182.050909 186.661647 
L 185.915844 193.287529 
L 189.780779 199.913412 
L 193.645714 206.539294 
L 197.510649 203.226353 
L 201.375584 219.791059 
L 205.240519 221.447529 
L 209.105455 219.791059 
L 212.97039 221.447529 
L 216.835325 219.791059 
L 220.70026 242.981647 
L 224.565195 242.981647 
L 228.43013 233.042824 
L 232.295065 233.042824 
L 236.16 233.042824 
L 240.024935 238.012235 
L 243.88987 239.668706 
L 247.754805 241.325176 
L 251.61974 241.325176 
L 255.484675 241.325176 
L 259.34961 244.638118 
L 263.214545 242.981647 
L 267.079481 239.668706 
L 270.944416 239.668706 
L 274.809351 242.981647 
L 278.674286 239.668706 
L 282.539221 239.668706 
L 286.404156 242.981647 
L 290.269091 242.981647 
L 294.134026 246.294588 
L 297.998961 249.607529 
L 301.863896 246.294588 
L 305.728831 249.607529 
L 309.593766 249.607529 
L 313.458701 249.607529 
L 317.323636 241.325176 
L 321.188571 244.638118 
L 325.053506 241.325176 
L 328.918442 234.699294 
L 332.783377 234.699294 
L 336.648312 231.386353 
L 340.513247 234.699294 
L 344.378182 231.386353 
L 348.243117 234.699294 
L 352.108052 231.386353 
L 355.972987 251.264 
L 359.837922 239.668706 
L 363.702857 228.073412 
L 367.567792 233.042824 
L 371.432727 246.294588 
L 375.297662 233.042824 
L 379.162597 234.699294 
L 383.027532 238.012235 
L 386.892468 244.638118 
L 390.757403 249.607529 
L 394.622338 249.607529 
L 398.487273 249.607529 
L 398.487273 249.607529 
L 398.487273 249.607529 
L 394.622338 249.607529 
L 390.757403 249.607529 
L 386.892468 244.638118 
L 383.027532 238.012235 
L 379.162597 234.699294 
L 375.297662 233.042824 
L 371.432727 246.294588 
L 367.567792 233.042824 
L 363.702857 228.073412 
L 359.837922 239.668706 
L 355.972987 251.264 
L 352.108052 231.386353 
L 348.243117 234.699294 
L 344.378182 231.386353 
L 340.513247 234.699294 
L 336.648312 231.386353 
L 332.783377 234.699294 
L 328.918442 234.699294 
L 325.053506 241.325176 
L 321.188571 244.638118 
L 317.323636 241.325176 
L 313.458701 249.607529 
L 309.593766 249.607529 
L 305.728831 249.607529 
L 301.863896 246.294588 
L 297.998961 249.607529 
L 294.134026 246.294588 
L 290.269091 242.981647 
L 286.404156 242.981647 
L 282.539221 239.668706 
L 278.674286 239.668706 
L 274.809351 242.981647 
L 270.944416 239.668706 
L 267.079481 239.668706 
L 263.214545 242.981647 
L 259.34961 244.638118 
L 255.484675 241.325176 
L 251.61974 241.325176 
L 247.754805 241.325176 
L 243.88987 239.668706 
L 240.024935 238.012235 
L 236.16 233.042824 
L 232.295065 233.042824 
L 228.43013 233.042824 
L 224.565195 242.981647 
L 220.70026 242.981647 
L 216.835325 219.791059 
L 212.97039 221.447529 
L 209.105455 219.791059 
L 205.240519 221.447529 
L 201.375584 219.791059 
L 197.510649 203.226353 
L 193.645714 206.539294 
L 189.780779 199.913412 
L 185.915844 193.287529 
L 182.050909 186.661647 
L 178.185974 163.471059 
L 174.321039 156.845176 
L 170.456104 150.219294 
L 166.591169 153.532235 
L 162.726234 160.158118 
L 158.861299 155.188706 
L 154.996364 155.188706 
L 151.131429 141.936941 
L 147.266494 131.998118 
L 143.401558 125.372235 
L 139.536623 108.807529 
L 135.671688 98.868706 
L 131.806753 87.273412 
L 127.941818 90.586353 
L 124.076883 90.586353 
L 120.211948 57.456941 
L 116.347013 55.800471 
L 112.482078 55.800471 
L 108.617143 55.800471 
L 104.752208 54.144 
L 100.887273 55.800471 
L 97.022338 60.769882 
L 93.157403 60.769882 
L 89.292468 60.769882 
L 85.427532 59.113412 
L 81.562597 59.113412 
L 77.697662 59.113412 
L 73.832727 59.113412 
z
" clip-path="url(#p657c22858f)" style="fill: #e377c2"/>
   </g>
   <g id="PolyCollection_8">
    <path d="M 73.832727 59.113412 
L 73.832727 59.113412 
L 77.697662 59.113412 
L 81.562597 59.113412 
L 85.427532 59.113412 
L 89.292468 60.769882 
L 93.157403 60.769882 
L 97.022338 60.769882 
L 100.887273 55.800471 
L 104.752208 54.144 
L 108.617143 55.800471 
L 112.482078 55.800471 
L 116.347013 55.800471 
L 120.211948 57.456941 
L 124.076883 90.586353 
L 127.941818 90.586353 
L 131.806753 87.273412 
L 135.671688 98.868706 
L 139.536623 108.807529 
L 143.401558 125.372235 
L 147.266494 131.998118 
L 151.131429 141.936941 
L 154.996364 155.188706 
L 158.861299 155.188706 
L 162.726234 160.158118 
L 166.591169 153.532235 
L 170.456104 150.219294 
L 174.321039 156.845176 
L 178.185974 163.471059 
L 182.050909 186.661647 
L 185.915844 193.287529 
L 189.780779 199.913412 
L 193.645714 206.539294 
L 197.510649 203.226353 
L 201.375584 219.791059 
L 205.240519 221.447529 
L 209.105455 219.791059 
L 212.97039 221.447529 
L 216.835325 219.791059 
L 220.70026 242.981647 
L 224.565195 242.981647 
L 228.43013 233.042824 
L 232.295065 233.042824 
L 236.16 233.042824 
L 240.024935 238.012235 
L 243.88987 239.668706 
L 247.754805 241.325176 
L 251.61974 241.325176 
L 255.484675 241.325176 
L 259.34961 244.638118 
L 263.214545 242.981647 
L 267.079481 239.668706 
L 270.944416 239.668706 
L 274.809351 242.981647 
L 278.674286 239.668706 
L 282.539221 239.668706 
L 286.404156 242.981647 
L 290.269091 242.981647 
L 294.134026 246.294588 
L 297.998961 249.607529 
L 301.863896 246.294588 
L 305.728831 249.607529 
L 309.593766 249.607529 
L 313.458701 249.607529 
L 317.323636 241.325176 
L 321.188571 244.638118 
L 325.053506 241.325176 
L 328.918442 234.699294 
L 332.783377 234.699294 
L 336.648312 231.386353 
L 340.513247 234.699294 
L 344.378182 231.386353 
L 348.243117 234.699294 
L 352.108052 231.386353 
L 355.972987 251.264 
L 359.837922 239.668706 
L 363.702857 228.073412 
L 367.567792 233.042824 
L 371.432727 246.294588 
L 375.297662 233.042824 
L 379.162597 234.699294 
L 383.027532 238.012235 
L 386.892468 244.638118 
L 390.757403 249.607529 
L 394.622338 249.607529 
L 398.487273 249.607529 
L 398.487273 249.607529 
L 398.487273 249.607529 
L 394.622338 249.607529 
L 390.757403 249.607529 
L 386.892468 244.638118 
L 383.027532 238.012235 
L 379.162597 234.699294 
L 375.297662 233.042824 
L 371.432727 246.294588 
L 367.567792 233.042824 
L 363.702857 228.073412 
L 359.837922 239.668706 
L 355.972987 251.264 
L 352.108052 231.386353 
L 348.243117 234.699294 
L 344.378182 231.386353 
L 340.513247 234.699294 
L 336.648312 231.386353 
L 332.783377 234.699294 
L 328.918442 234.699294 
L 325.053506 241.325176 
L 321.188571 244.638118 
L 317.323636 241.325176 
L 313.458701 249.607529 
L 309.593766 249.607529 
L 305.728831 249.607529 
L 301.863896 246.294588 
L 297.998961 249.607529 
L 294.134026 246.294588 
L 290.269091 242.981647 
L 286.404156 242.981647 
L 282.539221 239.668706 
L 278.674286 239.668706 
L 274.809351 242.981647 
L 270.944416 239.668706 
L 267.079481 239.668706 
L 263.214545 242.981647 
L 259.34961 244.638118 
L 255.484675 241.325176 
L 251.61974 241.325176 
L 247.754805 241.325176 
L 243.88987 239.668706 
L 240.024935 238.012235 
L 236.16 233.042824 
L 232.295065 233.042824 
L 228.43013 233.042824 
L 224.565195 213.165176 
L 220.70026 211.508706 
L 216.835325 191.631059 
L 212.97039 191.631059 
L 209.105455 191.631059 
L 205.240519 194.944 
L 201.375584 191.631059 
L 197.510649 178.379294 
L 193.645714 180.035765 
L 189.780779 175.066353 
L 185.915844 170.096941 
L 182.050909 160.158118 
L 178.185974 135.311059 
L 174.321039 131.998118 
L 170.456104 127.028706 
L 166.591169 128.685176 
L 162.726234 133.654588 
L 158.861299 130.341647 
L 154.996364 131.998118 
L 151.131429 120.402824 
L 147.266494 108.807529 
L 143.401558 100.525176 
L 139.536623 88.929882 
L 135.671688 80.647529 
L 131.806753 69.052235 
L 127.941818 60.769882 
L 124.076883 59.113412 
L 120.211948 57.456941 
L 116.347013 55.800471 
L 112.482078 55.800471 
L 108.617143 55.800471 
L 104.752208 54.144 
L 100.887273 55.800471 
L 97.022338 60.769882 
L 93.157403 60.769882 
L 89.292468 60.769882 
L 85.427532 59.113412 
L 81.562597 59.113412 
L 77.697662 59.113412 
L 73.832727 59.113412 
z
" clip-path="url(#p657c22858f)" style="fill: #7f7f7f"/>
   </g>
   <g id="PolyCollection_9">
    <path d="M 73.832727 59.113412 
L 73.832727 59.113412 
L 77.697662 59.113412 
L 81.562597 59.113412 
L 85.427532 59.113412 
L 89.292468 60.769882 
L 93.157403 60.769882 
L 97.022338 60.769882 
L 100.887273 55.800471 
L 104.752208 54.144 
L 108.617143 55.800471 
L 112.482078 55.800471 
L 116.347013 55.800471 
L 120.211948 57.456941 
L 124.076883 59.113412 
L 127.941818 60.769882 
L 131.806753 69.052235 
L 135.671688 80.647529 
L 139.536623 88.929882 
L 143.401558 100.525176 
L 147.266494 108.807529 
L 151.131429 120.402824 
L 154.996364 131.998118 
L 158.861299 130.341647 
L 162.726234 133.654588 
L 166.591169 128.685176 
L 170.456104 127.028706 
L 174.321039 131.998118 
L 178.185974 135.311059 
L 182.050909 160.158118 
L 185.915844 170.096941 
L 189.780779 175.066353 
L 193.645714 180.035765 
L 197.510649 178.379294 
L 201.375584 191.631059 
L 205.240519 194.944 
L 209.105455 191.631059 
L 212.97039 191.631059 
L 216.835325 191.631059 
L 220.70026 211.508706 
L 224.565195 213.165176 
L 228.43013 233.042824 
L 232.295065 233.042824 
L 236.16 233.042824 
L 240.024935 238.012235 
L 243.88987 239.668706 
L 247.754805 241.325176 
L 251.61974 241.325176 
L 255.484675 241.325176 
L 259.34961 244.638118 
L 263.214545 242.981647 
L 267.079481 239.668706 
L 270.944416 239.668706 
L 274.809351 242.981647 
L 278.674286 239.668706 
L 282.539221 239.668706 
L 286.404156 242.981647 
L 290.269091 242.981647 
L 294.134026 246.294588 
L 297.998961 249.607529 
L 301.863896 246.294588 
L 305.728831 249.607529 
L 309.593766 249.607529 
L 313.458701 249.607529 
L 317.323636 241.325176 
L 321.188571 244.638118 
L 325.053506 241.325176 
L 328.918442 234.699294 
L 332.783377 234.699294 
L 336.648312 231.386353 
L 340.513247 234.699294 
L 344.378182 231.386353 
L 348.243117 234.699294 
L 352.108052 231.386353 
L 355.972987 251.264 
L 359.837922 239.668706 
L 363.702857 228.073412 
L 367.567792 233.042824 
L 371.432727 246.294588 
L 375.297662 233.042824 
L 379.162597 234.699294 
L 383.027532 238.012235 
L 386.892468 244.638118 
L 390.757403 249.607529 
L 394.622338 249.607529 
L 398.487273 249.607529 
L 398.487273 249.607529 
L 398.487273 249.607529 
L 394.622338 249.607529 
L 390.757403 249.607529 
L 386.892468 244.638118 
L 383.027532 238.012235 
L 379.162597 234.699294 
L 375.297662 233.042824 
L 371.432727 246.294588 
L 367.567792 233.042824 
L 363.702857 228.073412 
L 359.837922 239.668706 
L 355.972987 219.791059 
L 352.108052 198.256941 
L 348.243117 199.913412 
L 344.378182 199.913412 
L 340.513247 201.569882 
L 336.648312 198.256941 
L 332.783377 203.226353 
L 328.918442 198.256941 
L 325.053506 208.195765 
L 321.188571 213.165176 
L 317.323636 211.508706 
L 313.458701 223.104 
L 309.593766 221.447529 
L 305.728831 216.478118 
L 301.863896 219.791059 
L 297.998961 219.791059 
L 294.134026 214.821647 
L 290.269091 226.416941 
L 286.404156 226.416941 
L 282.539221 208.195765 
L 278.674286 208.195765 
L 274.809351 213.165176 
L 270.944416 211.508706 
L 267.079481 209.852235 
L 263.214545 211.508706 
L 259.34961 214.821647 
L 255.484675 213.165176 
L 251.61974 209.852235 
L 247.754805 211.508706 
L 243.88987 209.852235 
L 240.024935 204.882824 
L 236.16 199.913412 
L 232.295065 198.256941 
L 228.43013 199.913412 
L 224.565195 183.348706 
L 220.70026 185.005176 
L 216.835325 171.753412 
L 212.97039 170.096941 
L 209.105455 168.440471 
L 205.240519 168.440471 
L 201.375584 166.784 
L 197.510649 156.845176 
L 193.645714 156.845176 
L 189.780779 150.219294 
L 185.915844 143.593412 
L 182.050909 131.998118 
L 178.185974 107.151059 
L 174.321039 107.151059 
L 170.456104 103.838118 
L 166.591169 103.838118 
L 162.726234 107.151059 
L 158.861299 105.494588 
L 154.996364 108.807529 
L 151.131429 98.868706 
L 147.266494 85.616941 
L 143.401558 75.678118 
L 139.536623 60.769882 
L 135.671688 59.113412 
L 131.806753 59.113412 
L 127.941818 60.769882 
L 124.076883 59.113412 
L 120.211948 57.456941 
L 116.347013 55.800471 
L 112.482078 55.800471 
L 108.617143 55.800471 
L 104.752208 54.144 
L 100.887273 55.800471 
L 97.022338 60.769882 
L 93.157403 60.769882 
L 89.292468 60.769882 
L 85.427532 59.113412 
L 81.562597 59.113412 
L 77.697662 59.113412 
L 73.832727 59.113412 
z
" clip-path="url(#p657c22858f)" style="fill: #bcbd22"/>
   </g>
   <g id="PolyCollection_10">
    <path d="M 73.832727 59.113412 
L 73.832727 59.113412 
L 77.697662 59.113412 
L 81.562597 59.113412 
L 85.427532 59.113412 
L 89.292468 60.769882 
L 93.157403 60.769882 
L 97.022338 60.769882 
L 100.887273 55.800471 
L 104.752208 54.144 
L 108.617143 55.800471 
L 112.482078 55.800471 
L 116.347013 55.800471 
L 120.211948 57.456941 
L 124.076883 59.113412 
L 127.941818 60.769882 
L 131.806753 59.113412 
L 135.671688 59.113412 
L 139.536623 60.769882 
L 143.401558 75.678118 
L 147.266494 85.616941 
L 151.131429 98.868706 
L 154.996364 108.807529 
L 158.861299 105.494588 
L 162.726234 107.151059 
L 166.591169 103.838118 
L 170.456104 103.838118 
L 174.321039 107.151059 
L 178.185974 107.151059 
L 182.050909 131.998118 
L 185.915844 143.593412 
L 189.780779 150.219294 
L 193.645714 156.845176 
L 197.510649 156.845176 
L 201.375584 166.784 
L 205.240519 168.440471 
L 209.105455 168.440471 
L 212.97039 170.096941 
L 216.835325 171.753412 
L 220.70026 185.005176 
L 224.565195 183.348706 
L 228.43013 199.913412 
L 232.295065 198.256941 
L 236.16 199.913412 
L 240.024935 204.882824 
L 243.88987 209.852235 
L 247.754805 211.508706 
L 251.61974 209.852235 
L 255.484675 213.165176 
L 259.34961 214.821647 
L 263.214545 211.508706 
L 267.079481 209.852235 
L 270.944416 211.508706 
L 274.809351 213.165176 
L 278.674286 208.195765 
L 282.539221 208.195765 
L 286.404156 226.416941 
L 290.269091 226.416941 
L 294.134026 214.821647 
L 297.998961 219.791059 
L 301.863896 219.791059 
L 305.728831 216.478118 
L 309.593766 221.447529 
L 313.458701 223.104 
L 317.323636 211.508706 
L 321.188571 213.165176 
L 325.053506 208.195765 
L 328.918442 198.256941 
L 332.783377 203.226353 
L 336.648312 198.256941 
L 340.513247 201.569882 
L 344.378182 199.913412 
L 348.243117 199.913412 
L 352.108052 198.256941 
L 355.972987 219.791059 
L 359.837922 239.668706 
L 363.702857 228.073412 
L 367.567792 233.042824 
L 371.432727 246.294588 
L 375.297662 233.042824 
L 379.162597 234.699294 
L 383.027532 238.012235 
L 386.892468 244.638118 
L 390.757403 249.607529 
L 394.622338 249.607529 
L 398.487273 249.607529 
L 398.487273 249.607529 
L 398.487273 249.607529 
L 394.622338 249.607529 
L 390.757403 249.607529 
L 386.892468 244.638118 
L 383.027532 238.012235 
L 379.162597 234.699294 
L 375.297662 233.042824 
L 371.432727 246.294588 
L 367.567792 233.042824 
L 363.702857 228.073412 
L 359.837922 239.668706 
L 355.972987 219.791059 
L 352.108052 198.256941 
L 348.243117 199.913412 
L 344.378182 199.913412 
L 340.513247 201.569882 
L 336.648312 198.256941 
L 332.783377 203.226353 
L 328.918442 198.256941 
L 325.053506 180.035765 
L 321.188571 181.692235 
L 317.323636 181.692235 
L 313.458701 198.256941 
L 309.593766 198.256941 
L 305.728831 191.631059 
L 301.863896 196.600471 
L 297.998961 194.944 
L 294.134026 188.318118 
L 290.269091 198.256941 
L 286.404156 194.944 
L 282.539221 178.379294 
L 278.674286 180.035765 
L 274.809351 183.348706 
L 270.944416 181.692235 
L 267.079481 181.692235 
L 263.214545 181.692235 
L 259.34961 183.348706 
L 255.484675 183.348706 
L 251.61974 183.348706 
L 247.754805 183.348706 
L 243.88987 176.722824 
L 240.024935 170.096941 
L 236.16 166.784 
L 232.295065 163.471059 
L 228.43013 163.471059 
L 224.565195 150.219294 
L 220.70026 153.532235 
L 216.835325 143.593412 
L 212.97039 143.593412 
L 209.105455 140.280471 
L 205.240519 141.936941 
L 201.375584 138.624 
L 197.510649 131.998118 
L 193.645714 130.341647 
L 189.780779 122.059294 
L 185.915844 117.089882 
L 182.050909 103.838118 
L 178.185974 78.991059 
L 174.321039 82.304 
L 170.456104 80.647529 
L 166.591169 82.304 
L 162.726234 82.304 
L 158.861299 82.304 
L 154.996364 87.273412 
L 151.131429 80.647529 
L 147.266494 65.739294 
L 143.401558 62.426353 
L 139.536623 60.769882 
L 135.671688 59.113412 
L 131.806753 59.113412 
L 127.941818 60.769882 
L 124.076883 59.113412 
L 120.211948 57.456941 
L 116.347013 55.800471 
L 112.482078 55.800471 
L 108.617143 55.800471 
L 104.752208 54.144 
L 100.887273 55.800471 
L 97.022338 60.769882 
L 93.157403 60.769882 
L 89.292468 60.769882 
L 85.427532 59.113412 
L 81.562597 59.113412 
L 77.697662 59.113412 
L 73.832727 59.113412 
z
" clip-path="url(#p657c22858f)" style="fill: #17becf"/>
   </g>
   <g id="PolyCollection_11">
    <path d="M 73.832727 59.113412 
L 73.832727 59.113412 
L 77.697662 59.113412 
L 81.562597 59.113412 
L 85.427532 59.113412 
L 89.292468 60.769882 
L 93.157403 60.769882 
L 97.022338 60.769882 
L 100.887273 55.800471 
L 104.752208 54.144 
L 108.617143 55.800471 
L 112.482078 55.800471 
L 116.347013 55.800471 
L 120.211948 57.456941 
L 124.076883 59.113412 
L 127.941818 60.769882 
L 131.806753 59.113412 
L 135.671688 59.113412 
L 139.536623 60.769882 
L 143.401558 62.426353 
L 147.266494 65.739294 
L 151.131429 80.647529 
L 154.996364 87.273412 
L 158.861299 82.304 
L 162.726234 82.304 
L 166.591169 82.304 
L 170.456104 80.647529 
L 174.321039 82.304 
L 178.185974 78.991059 
L 182.050909 103.838118 
L 185.915844 117.089882 
L 189.780779 122.059294 
L 193.645714 130.341647 
L 197.510649 131.998118 
L 201.375584 138.624 
L 205.240519 141.936941 
L 209.105455 140.280471 
L 212.97039 143.593412 
L 216.835325 143.593412 
L 220.70026 153.532235 
L 224.565195 150.219294 
L 228.43013 163.471059 
L 232.295065 163.471059 
L 236.16 166.784 
L 240.024935 170.096941 
L 243.88987 176.722824 
L 247.754805 183.348706 
L 251.61974 183.348706 
L 255.484675 183.348706 
L 259.34961 183.348706 
L 263.214545 181.692235 
L 267.079481 181.692235 
L 270.944416 181.692235 
L 274.809351 183.348706 
L 278.674286 180.035765 
L 282.539221 178.379294 
L 286.404156 194.944 
L 290.269091 198.256941 
L 294.134026 188.318118 
L 297.998961 194.944 
L 301.863896 196.600471 
L 305.728831 191.631059 
L 309.593766 198.256941 
L 313.458701 198.256941 
L 317.323636 181.692235 
L 321.188571 181.692235 
L 325.053506 180.035765 
L 328.918442 198.256941 
L 332.783377 203.226353 
L 336.648312 198.256941 
L 340.513247 201.569882 
L 344.378182 199.913412 
L 348.243117 199.913412 
L 352.108052 198.256941 
L 355.972987 219.791059 
L 359.837922 239.668706 
L 363.702857 228.073412 
L 367.567792 233.042824 
L 371.432727 246.294588 
L 375.297662 233.042824 
L 379.162597 234.699294 
L 383.027532 238.012235 
L 386.892468 244.638118 
L 390.757403 249.607529 
L 394.622338 249.607529 
L 398.487273 249.607529 
L 398.487273 221.447529 
L 398.487273 221.447529 
L 394.622338 219.791059 
L 390.757403 218.134588 
L 386.892468 213.165176 
L 383.027532 201.569882 
L 379.162597 194.944 
L 375.297662 189.974588 
L 371.432727 201.569882 
L 367.567792 189.974588 
L 363.702857 183.348706 
L 359.837922 191.631059 
L 355.972987 180.035765 
L 352.108052 160.158118 
L 348.243117 163.471059 
L 344.378182 161.814588 
L 340.513247 161.814588 
L 336.648312 156.845176 
L 332.783377 163.471059 
L 328.918442 160.158118 
L 325.053506 145.249882 
L 321.188571 148.562824 
L 317.323636 150.219294 
L 313.458701 170.096941 
L 309.593766 168.440471 
L 305.728831 163.471059 
L 301.863896 166.784 
L 297.998961 163.471059 
L 294.134026 158.501647 
L 290.269091 166.784 
L 286.404156 161.814588 
L 282.539221 143.593412 
L 278.674286 146.906353 
L 274.809351 151.875765 
L 270.944416 148.562824 
L 267.079481 146.906353 
L 263.214545 145.249882 
L 259.34961 148.562824 
L 255.484675 150.219294 
L 251.61974 151.875765 
L 247.754805 150.219294 
L 243.88987 141.936941 
L 240.024935 136.967529 
L 236.16 130.341647 
L 232.295065 125.372235 
L 228.43013 127.028706 
L 224.565195 118.746353 
L 220.70026 120.402824 
L 216.835325 113.776941 
L 212.97039 112.120471 
L 209.105455 107.151059 
L 205.240519 112.120471 
L 201.375584 107.151059 
L 197.510649 103.838118 
L 193.645714 102.181647 
L 189.780779 95.555765 
L 185.915844 92.242824 
L 182.050909 82.304 
L 178.185974 65.739294 
L 174.321039 57.456941 
L 170.456104 57.456941 
L 166.591169 57.456941 
L 162.726234 59.113412 
L 158.861299 57.456941 
L 154.996364 64.082824 
L 151.131429 62.426353 
L 147.266494 62.426353 
L 143.401558 62.426353 
L 139.536623 60.769882 
L 135.671688 59.113412 
L 131.806753 59.113412 
L 127.941818 60.769882 
L 124.076883 59.113412 
L 120.211948 57.456941 
L 116.347013 55.800471 
L 112.482078 55.800471 
L 108.617143 55.800471 
L 104.752208 54.144 
L 100.887273 55.800471 
L 97.022338 60.769882 
L 93.157403 60.769882 
L 89.292468 60.769882 
L 85.427532 59.113412 
L 81.562597 59.113412 
L 77.697662 59.113412 
L 73.832727 59.113412 
z
" clip-path="url(#p657c22858f)" style="fill: #1f77b4"/>
   </g>
   <g id="PolyCollection_12">
    <path d="M 73.832727 59.113412 
L 73.832727 59.113412 
L 77.697662 59.113412 
L 81.562597 59.113412 
L 85.427532 59.113412 
L 89.292468 60.769882 
L 93.157403 60.769882 
L 97.022338 60.769882 
L 100.887273 55.800471 
L 104.752208 54.144 
L 108.617143 55.800471 
L 112.482078 55.800471 
L 116.347013 55.800471 
L 120.211948 57.456941 
L 124.076883 59.113412 
L 127.941818 60.769882 
L 131.806753 59.113412 
L 135.671688 59.113412 
L 139.536623 60.769882 
L 143.401558 62.426353 
L 147.266494 62.426353 
L 151.131429 62.426353 
L 154.996364 64.082824 
L 158.861299 57.456941 
L 162.726234 59.113412 
L 166.591169 57.456941 
L 170.456104 57.456941 
L 174.321039 57.456941 
L 178.185974 65.739294 
L 182.050909 82.304 
L 185.915844 92.242824 
L 189.780779 95.555765 
L 193.645714 102.181647 
L 197.510649 103.838118 
L 201.375584 107.151059 
L 205.240519 112.120471 
L 209.105455 107.151059 
L 212.97039 112.120471 
L 216.835325 113.776941 
L 220.70026 120.402824 
L 224.565195 118.746353 
L 228.43013 127.028706 
L 232.295065 125.372235 
L 236.16 130.341647 
L 240.024935 136.967529 
L 243.88987 141.936941 
L 247.754805 150.219294 
L 251.61974 151.875765 
L 255.484675 150.219294 
L 259.34961 148.562824 
L 263.214545 145.249882 
L 267.079481 146.906353 
L 270.944416 148.562824 
L 274.809351 151.875765 
L 278.674286 146.906353 
L 282.539221 143.593412 
L 286.404156 161.814588 
L 290.269091 166.784 
L 294.134026 158.501647 
L 297.998961 163.471059 
L 301.863896 166.784 
L 305.728831 163.471059 
L 309.593766 168.440471 
L 313.458701 170.096941 
L 317.323636 150.219294 
L 321.188571 148.562824 
L 325.053506 145.249882 
L 328.918442 160.158118 
L 332.783377 163.471059 
L 336.648312 156.845176 
L 340.513247 161.814588 
L 344.378182 161.814588 
L 348.243117 163.471059 
L 352.108052 160.158118 
L 355.972987 180.035765 
L 359.837922 191.631059 
L 363.702857 183.348706 
L 367.567792 189.974588 
L 371.432727 201.569882 
L 375.297662 189.974588 
L 379.162597 194.944 
L 383.027532 201.569882 
L 386.892468 213.165176 
L 390.757403 218.134588 
L 394.622338 219.791059 
L 398.487273 221.447529 
L 398.487273 221.447529 
L 398.487273 221.447529 
L 394.622338 219.791059 
L 390.757403 218.134588 
L 386.892468 213.165176 
L 383.027532 201.569882 
L 379.162597 194.944 
L 375.297662 189.974588 
L 371.432727 201.569882 
L 367.567792 189.974588 
L 363.702857 183.348706 
L 359.837922 191.631059 
L 355.972987 145.249882 
L 352.108052 127.028706 
L 348.243117 128.685176 
L 344.378182 128.685176 
L 340.513247 127.028706 
L 336.648312 123.715765 
L 332.783377 131.998118 
L 328.918442 128.685176 
L 325.053506 120.402824 
L 321.188571 122.059294 
L 317.323636 122.059294 
L 313.458701 146.906353 
L 309.593766 141.936941 
L 305.728831 138.624 
L 301.863896 140.280471 
L 297.998961 135.311059 
L 294.134026 131.998118 
L 290.269091 136.967529 
L 286.404156 130.341647 
L 282.539221 113.776941 
L 278.674286 118.746353 
L 274.809351 122.059294 
L 270.944416 120.402824 
L 267.079481 117.089882 
L 263.214545 117.089882 
L 259.34961 118.746353 
L 255.484675 122.059294 
L 251.61974 122.059294 
L 247.754805 118.746353 
L 243.88987 110.464 
L 240.024935 102.181647 
L 236.16 97.212235 
L 232.295065 90.586353 
L 228.43013 90.586353 
L 224.565195 85.616941 
L 220.70026 88.929882 
L 216.835325 85.616941 
L 212.97039 85.616941 
L 209.105455 82.304 
L 205.240519 83.960471 
L 201.375584 80.647529 
L 197.510649 80.647529 
L 193.645714 78.991059 
L 189.780779 70.708706 
L 185.915844 69.052235 
L 182.050909 60.769882 
L 178.185974 54.144 
L 174.321039 57.456941 
L 170.456104 57.456941 
L 166.591169 57.456941 
L 162.726234 59.113412 
L 158.861299 57.456941 
L 154.996364 64.082824 
L 151.131429 62.426353 
L 147.266494 62.426353 
L 143.401558 62.426353 
L 139.536623 60.769882 
L 135.671688 59.113412 
L 131.806753 59.113412 
L 127.941818 60.769882 
L 124.076883 59.113412 
L 120.211948 57.456941 
L 116.347013 55.800471 
L 112.482078 55.800471 
L 108.617143 55.800471 
L 104.752208 54.144 
L 100.887273 55.800471 
L 97.022338 60.769882 
L 93.157403 60.769882 
L 89.292468 60.769882 
L 85.427532 59.113412 
L 81.562597 59.113412 
L 77.697662 59.113412 
L 73.832727 59.113412 
z
" clip-path="url(#p657c22858f)" style="fill: #ff7f0e"/>
   </g>
   <g id="PolyCollection_13">
    <path d="M 73.832727 59.113412 
L 73.832727 59.113412 
L 77.697662 59.113412 
L 81.562597 59.113412 
L 85.427532 59.113412 
L 89.292468 60.769882 
L 93.157403 60.769882 
L 97.022338 60.769882 
L 100.887273 55.800471 
L 104.752208 54.144 
L 108.617143 55.800471 
L 112.482078 55.800471 
L 116.347013 55.800471 
L 120.211948 57.456941 
L 124.076883 59.113412 
L 127.941818 60.769882 
L 131.806753 59.113412 
L 135.671688 59.113412 
L 139.536623 60.769882 
L 143.401558 62.426353 
L 147.266494 62.426353 
L 151.131429 62.426353 
L 154.996364 64.082824 
L 158.861299 57.456941 
L 162.726234 59.113412 
L 166.591169 57.456941 
L 170.456104 57.456941 
L 174.321039 57.456941 
L 178.185974 54.144 
L 182.050909 60.769882 
L 185.915844 69.052235 
L 189.780779 70.708706 
L 193.645714 78.991059 
L 197.510649 80.647529 
L 201.375584 80.647529 
L 205.240519 83.960471 
L 209.105455 82.304 
L 212.97039 85.616941 
L 216.835325 85.616941 
L 220.70026 88.929882 
L 224.565195 85.616941 
L 228.43013 90.586353 
L 232.295065 90.586353 
L 236.16 97.212235 
L 240.024935 102.181647 
L 243.88987 110.464 
L 247.754805 118.746353 
L 251.61974 122.059294 
L 255.484675 122.059294 
L 259.34961 118.746353 
L 263.214545 117.089882 
L 267.079481 117.089882 
L 270.944416 120.402824 
L 274.809351 122.059294 
L 278.674286 118.746353 
L 282.539221 113.776941 
L 286.404156 130.341647 
L 290.269091 136.967529 
L 294.134026 131.998118 
L 297.998961 135.311059 
L 301.863896 140.280471 
L 305.728831 138.624 
L 309.593766 141.936941 
L 313.458701 146.906353 
L 317.323636 122.059294 
L 321.188571 122.059294 
L 325.053506 120.402824 
L 328.918442 128.685176 
L 332.783377 131.998118 
L 336.648312 123.715765 
L 340.513247 127.028706 
L 344.378182 128.685176 
L 348.243117 128.685176 
L 352.108052 127.028706 
L 355.972987 145.249882 
L 359.837922 191.631059 
L 363.702857 183.348706 
L 367.567792 189.974588 
L 371.432727 201.569882 
L 375.297662 189.974588 
L 379.162597 194.944 
L 383.027532 201.569882 
L 386.892468 213.165176 
L 390.757403 218.134588 
L 394.622338 219.791059 
L 398.487273 221.447529 
L 398.487273 221.447529 
L 398.487273 221.447529 
L 394.622338 219.791059 
L 390.757403 218.134588 
L 386.892468 213.165176 
L 383.027532 201.569882 
L 379.162597 194.944 
L 375.297662 189.974588 
L 371.432727 201.569882 
L 367.567792 189.974588 
L 363.702857 183.348706 
L 359.837922 191.631059 
L 355.972987 145.249882 
L 352.108052 127.028706 
L 348.243117 128.685176 
L 344.378182 128.685176 
L 340.513247 127.028706 
L 336.648312 123.715765 
L 332.783377 131.998118 
L 328.918442 128.685176 
L 325.053506 120.402824 
L 321.188571 122.059294 
L 317.323636 122.059294 
L 313.458701 118.746353 
L 309.593766 115.433412 
L 305.728831 113.776941 
L 301.863896 117.089882 
L 297.998961 110.464 
L 294.134026 105.494588 
L 290.269091 108.807529 
L 286.404156 98.868706 
L 282.539221 83.960471 
L 278.674286 90.586353 
L 274.809351 90.586353 
L 270.944416 92.242824 
L 267.079481 90.586353 
L 263.214545 88.929882 
L 259.34961 88.929882 
L 255.484675 93.899294 
L 251.61974 90.586353 
L 247.754805 88.929882 
L 243.88987 78.991059 
L 240.024935 72.365176 
L 236.16 64.082824 
L 232.295065 59.113412 
L 228.43013 60.769882 
L 224.565195 57.456941 
L 220.70026 59.113412 
L 216.835325 59.113412 
L 212.97039 57.456941 
L 209.105455 55.800471 
L 205.240519 59.113412 
L 201.375584 54.144 
L 197.510649 59.113412 
L 193.645714 60.769882 
L 189.780779 59.113412 
L 185.915844 60.769882 
L 182.050909 59.113412 
L 178.185974 54.144 
L 174.321039 57.456941 
L 170.456104 57.456941 
L 166.591169 57.456941 
L 162.726234 59.113412 
L 158.861299 57.456941 
L 154.996364 64.082824 
L 151.131429 62.426353 
L 147.266494 62.426353 
L 143.401558 62.426353 
L 139.536623 60.769882 
L 135.671688 59.113412 
L 131.806753 59.113412 
L 127.941818 60.769882 
L 124.076883 59.113412 
L 120.211948 57.456941 
L 116.347013 55.800471 
L 112.482078 55.800471 
L 108.617143 55.800471 
L 104.752208 54.144 
L 100.887273 55.800471 
L 97.022338 60.769882 
L 93.157403 60.769882 
L 89.292468 60.769882 
L 85.427532 59.113412 
L 81.562597 59.113412 
L 77.697662 59.113412 
L 73.832727 59.113412 
z
" clip-path="url(#p657c22858f)" style="fill: #2ca02c"/>
   </g>
   <g id="PolyCollection_14">
    <path d="M 73.832727 59.113412 
L 73.832727 59.113412 
L 77.697662 59.113412 
L 81.562597 59.113412 
L 85.427532 59.113412 
L 89.292468 60.769882 
L 93.157403 60.769882 
L 97.022338 60.769882 
L 100.887273 55.800471 
L 104.752208 54.144 
L 108.617143 55.800471 
L 112.482078 55.800471 
L 116.347013 55.800471 
L 120.211948 57.456941 
L 124.076883 59.113412 
L 127.941818 60.769882 
L 131.806753 59.113412 
L 135.671688 59.113412 
L 139.536623 60.769882 
L 143.401558 62.426353 
L 147.266494 62.426353 
L 151.131429 62.426353 
L 154.996364 64.082824 
L 158.861299 57.456941 
L 162.726234 59.113412 
L 166.591169 57.456941 
L 170.456104 57.456941 
L 174.321039 57.456941 
L 178.185974 54.144 
L 182.050909 59.113412 
L 185.915844 60.769882 
L 189.780779 59.113412 
L 193.645714 60.769882 
L 197.510649 59.113412 
L 201.375584 54.144 
L 205.240519 59.113412 
L 209.105455 55.800471 
L 212.97039 57.456941 
L 216.835325 59.113412 
L 220.70026 59.113412 
L 224.565195 57.456941 
L 228.43013 60.769882 
L 232.295065 59.113412 
L 236.16 64.082824 
L 240.024935 72.365176 
L 243.88987 78.991059 
L 247.754805 88.929882 
L 251.61974 90.586353 
L 255.484675 93.899294 
L 259.34961 88.929882 
L 263.214545 88.929882 
L 267.079481 90.586353 
L 270.944416 92.242824 
L 274.809351 90.586353 
L 278.674286 90.586353 
L 282.539221 83.960471 
L 286.404156 98.868706 
L 290.269091 108.807529 
L 294.134026 105.494588 
L 297.998961 110.464 
L 301.863896 117.089882 
L 305.728831 113.776941 
L 309.593766 115.433412 
L 313.458701 118.746353 
L 317.323636 122.059294 
L 321.188571 122.059294 
L 325.053506 120.402824 
L 328.918442 128.685176 
L 332.783377 131.998118 
L 336.648312 123.715765 
L 340.513247 127.028706 
L 344.378182 128.685176 
L 348.243117 128.685176 
L 352.108052 127.028706 
L 355.972987 145.249882 
L 359.837922 191.631059 
L 363.702857 183.348706 
L 367.567792 189.974588 
L 371.432727 201.569882 
L 375.297662 189.974588 
L 379.162597 194.944 
L 383.027532 201.569882 
L 386.892468 213.165176 
L 390.757403 218.134588 
L 394.622338 219.791059 
L 398.487273 221.447529 
L 398.487273 196.600471 
L 398.487273 196.600471 
L 394.622338 196.600471 
L 390.757403 199.913412 
L 386.892468 203.226353 
L 383.027532 181.692235 
L 379.162597 158.501647 
L 375.297662 150.219294 
L 371.432727 163.471059 
L 367.567792 153.532235 
L 363.702857 145.249882 
L 359.837922 151.875765 
L 355.972987 112.120471 
L 352.108052 92.242824 
L 348.243117 95.555765 
L 344.378182 97.212235 
L 340.513247 93.899294 
L 336.648312 92.242824 
L 332.783377 98.868706 
L 328.918442 95.555765 
L 325.053506 90.586353 
L 321.188571 90.586353 
L 317.323636 92.242824 
L 313.458701 92.242824 
L 309.593766 90.586353 
L 305.728831 87.273412 
L 301.863896 92.242824 
L 297.998961 83.960471 
L 294.134026 80.647529 
L 290.269091 82.304 
L 286.404156 70.708706 
L 282.539221 54.144 
L 278.674286 60.769882 
L 274.809351 59.113412 
L 270.944416 62.426353 
L 267.079481 59.113412 
L 263.214545 55.800471 
L 259.34961 57.456941 
L 255.484675 60.769882 
L 251.61974 62.426353 
L 247.754805 64.082824 
L 243.88987 60.769882 
L 240.024935 60.769882 
L 236.16 60.769882 
L 232.295065 59.113412 
L 228.43013 60.769882 
L 224.565195 57.456941 
L 220.70026 59.113412 
L 216.835325 59.113412 
L 212.97039 57.456941 
L 209.105455 55.800471 
L 205.240519 59.113412 
L 201.375584 54.144 
L 197.510649 59.113412 
L 193.645714 60.769882 
L 189.780779 59.113412 
L 185.915844 60.769882 
L 182.050909 59.113412 
L 178.185974 54.144 
L 174.321039 57.456941 
L 170.456104 57.456941 
L 166.591169 57.456941 
L 162.726234 59.113412 
L 158.861299 57.456941 
L 154.996364 64.082824 
L 151.131429 62.426353 
L 147.266494 62.426353 
L 143.401558 62.426353 
L 139.536623 60.769882 
L 135.671688 59.113412 
L 131.806753 59.113412 
L 127.941818 60.769882 
L 124.076883 59.113412 
L 120.211948 57.456941 
L 116.347013 55.800471 
L 112.482078 55.800471 
L 108.617143 55.800471 
L 104.752208 54.144 
L 100.887273 55.800471 
L 97.022338 60.769882 
L 93.157403 60.769882 
L 89.292468 60.769882 
L 85.427532 59.113412 
L 81.562597 59.113412 
L 77.697662 59.113412 
L 73.832727 59.113412 
z
" clip-path="url(#p657c22858f)" style="fill: #d62728"/>
   </g>
   <g id="PolyCollection_15">
    <path d="M 73.832727 59.113412 
L 73.832727 59.113412 
L 77.697662 59.113412 
L 81.562597 59.113412 
L 85.427532 59.113412 
L 89.292468 60.769882 
L 93.157403 60.769882 
L 97.022338 60.769882 
L 100.887273 55.800471 
L 104.752208 54.144 
L 108.617143 55.800471 
L 112.482078 55.800471 
L 116.347013 55.800471 
L 120.211948 57.456941 
L 124.076883 59.113412 
L 127.941818 60.769882 
L 131.806753 59.113412 
L 135.671688 59.113412 
L 139.536623 60.769882 
L 143.401558 62.426353 
L 147.266494 62.426353 
L 151.131429 62.426353 
L 154.996364 64.082824 
L 158.861299 57.456941 
L 162.726234 59.113412 
L 166.591169 57.456941 
L 170.456104 57.456941 
L 174.321039 57.456941 
L 178.185974 54.144 
L 182.050909 59.113412 
L 185.915844 60.769882 
L 189.780779 59.113412 
L 193.645714 60.769882 
L 197.510649 59.113412 
L 201.375584 54.144 
L 205.240519 59.113412 
L 209.105455 55.800471 
L 212.97039 57.456941 
L 216.835325 59.113412 
L 220.70026 59.113412 
L 224.565195 57.456941 
L 228.43013 60.769882 
L 232.295065 59.113412 
L 236.16 60.769882 
L 240.024935 60.769882 
L 243.88987 60.769882 
L 247.754805 64.082824 
L 251.61974 62.426353 
L 255.484675 60.769882 
L 259.34961 57.456941 
L 263.214545 55.800471 
L 267.079481 59.113412 
L 270.944416 62.426353 
L 274.809351 59.113412 
L 278.674286 60.769882 
L 282.539221 54.144 
L 286.404156 70.708706 
L 290.269091 82.304 
L 294.134026 80.647529 
L 297.998961 83.960471 
L 301.863896 92.242824 
L 305.728831 87.273412 
L 309.593766 90.586353 
L 313.458701 92.242824 
L 317.323636 92.242824 
L 321.188571 90.586353 
L 325.053506 90.586353 
L 328.918442 95.555765 
L 332.783377 98.868706 
L 336.648312 92.242824 
L 340.513247 93.899294 
L 344.378182 97.212235 
L 348.243117 95.555765 
L 352.108052 92.242824 
L 355.972987 112.120471 
L 359.837922 151.875765 
L 363.702857 145.249882 
L 367.567792 153.532235 
L 371.432727 163.471059 
L 375.297662 150.219294 
L 379.162597 158.501647 
L 383.027532 181.692235 
L 386.892468 203.226353 
L 390.757403 199.913412 
L 394.622338 196.600471 
L 398.487273 196.600471 
L 398.487273 171.753412 
L 398.487273 171.753412 
L 394.622338 170.096941 
L 390.757403 175.066353 
L 386.892468 180.035765 
L 383.027532 158.501647 
L 379.162597 143.593412 
L 375.297662 113.776941 
L 371.432727 123.715765 
L 367.567792 112.120471 
L 363.702857 105.494588 
L 359.837922 110.464 
L 355.972987 77.334588 
L 352.108052 59.113412 
L 348.243117 60.769882 
L 344.378182 62.426353 
L 340.513247 60.769882 
L 336.648312 59.113412 
L 332.783377 64.082824 
L 328.918442 60.769882 
L 325.053506 60.769882 
L 321.188571 59.113412 
L 317.323636 62.426353 
L 313.458701 62.426353 
L 309.593766 60.769882 
L 305.728831 62.426353 
L 301.863896 64.082824 
L 297.998961 60.769882 
L 294.134026 62.426353 
L 290.269091 55.800471 
L 286.404156 57.456941 
L 282.539221 54.144 
L 278.674286 60.769882 
L 274.809351 59.113412 
L 270.944416 62.426353 
L 267.079481 59.113412 
L 263.214545 55.800471 
L 259.34961 57.456941 
L 255.484675 60.769882 
L 251.61974 62.426353 
L 247.754805 64.082824 
L 243.88987 60.769882 
L 240.024935 60.769882 
L 236.16 60.769882 
L 232.295065 59.113412 
L 228.43013 60.769882 
L 224.565195 57.456941 
L 220.70026 59.113412 
L 216.835325 59.113412 
L 212.97039 57.456941 
L 209.105455 55.800471 
L 205.240519 59.113412 
L 201.375584 54.144 
L 197.510649 59.113412 
L 193.645714 60.769882 
L 189.780779 59.113412 
L 185.915844 60.769882 
L 182.050909 59.113412 
L 178.185974 54.144 
L 174.321039 57.456941 
L 170.456104 57.456941 
L 166.591169 57.456941 
L 162.726234 59.113412 
L 158.861299 57.456941 
L 154.996364 64.082824 
L 151.131429 62.426353 
L 147.266494 62.426353 
L 143.401558 62.426353 
L 139.536623 60.769882 
L 135.671688 59.113412 
L 131.806753 59.113412 
L 127.941818 60.769882 
L 124.076883 59.113412 
L 120.211948 57.456941 
L 116.347013 55.800471 
L 112.482078 55.800471 
L 108.617143 55.800471 
L 104.752208 54.144 
L 100.887273 55.800471 
L 97.022338 60.769882 
L 93.157403 60.769882 
L 89.292468 60.769882 
L 85.427532 59.113412 
L 81.562597 59.113412 
L 77.697662 59.113412 
L 73.832727 59.113412 
z
" clip-path="url(#p657c22858f)" style="fill: #9467bd"/>
   </g>
   <g id="PolyCollection_16">
    <path d="M 73.832727 59.113412 
L 73.832727 59.113412 
L 77.697662 59.113412 
L 81.562597 59.113412 
L 85.427532 59.113412 
L 89.292468 60.769882 
L 93.157403 60.769882 
L 97.022338 60.769882 
L 100.887273 55.800471 
L 104.752208 54.144 
L 108.617143 55.800471 
L 112.482078 55.800471 
L 116.347013 55.800471 
L 120.211948 57.456941 
L 124.076883 59.113412 
L 127.941818 60.769882 
L 131.806753 59.113412 
L 135.671688 59.113412 
L 139.536623 60.769882 
L 143.401558 62.426353 
L 147.266494 62.426353 
L 151.131429 62.426353 
L 154.996364 64.082824 
L 158.861299 57.456941 
L 162.726234 59.113412 
L 166.591169 57.456941 
L 170.456104 57.456941 
L 174.321039 57.456941 
L 178.185974 54.144 
L 182.050909 59.113412 
L 185.915844 60.769882 
L 189.780779 59.113412 
L 193.645714 60.769882 
L 197.510649 59.113412 
L 201.375584 54.144 
L 205.240519 59.113412 
L 209.105455 55.800471 
L 212.97039 57.456941 
L 216.835325 59.113412 
L 220.70026 59.113412 
L 224.565195 57.456941 
L 228.43013 60.769882 
L 232.295065 59.113412 
L 236.16 60.769882 
L 240.024935 60.769882 
L 243.88987 60.769882 
L 247.754805 64.082824 
L 251.61974 62.426353 
L 255.484675 60.769882 
L 259.34961 57.456941 
L 263.214545 55.800471 
L 267.079481 59.113412 
L 270.944416 62.426353 
L 274.809351 59.113412 
L 278.674286 60.769882 
L 282.539221 54.144 
L 286.404156 57.456941 
L 290.269091 55.800471 
L 294.134026 62.426353 
L 297.998961 60.769882 
L 301.863896 64.082824 
L 305.728831 62.426353 
L 309.593766 60.769882 
L 313.458701 62.426353 
L 317.323636 62.426353 
L 321.188571 59.113412 
L 325.053506 60.769882 
L 328.918442 60.769882 
L 332.783377 64.082824 
L 336.648312 59.113412 
L 340.513247 60.769882 
L 344.378182 62.426353 
L 348.243117 60.769882 
L 352.108052 59.113412 
L 355.972987 77.334588 
L 359.837922 110.464 
L 363.702857 105.494588 
L 367.567792 112.120471 
L 371.432727 123.715765 
L 375.297662 113.776941 
L 379.162597 143.593412 
L 383.027532 158.501647 
L 386.892468 180.035765 
L 390.757403 175.066353 
L 394.622338 170.096941 
L 398.487273 171.753412 
L 398.487273 141.936941 
L 398.487273 141.936941 
L 394.622338 138.624 
L 390.757403 141.936941 
L 386.892468 143.593412 
L 383.027532 118.746353 
L 379.162597 97.212235 
L 375.297662 59.113412 
L 371.432727 57.456941 
L 367.567792 60.769882 
L 363.702857 59.113412 
L 359.837922 59.113412 
L 355.972987 60.769882 
L 352.108052 59.113412 
L 348.243117 60.769882 
L 344.378182 62.426353 
L 340.513247 60.769882 
L 336.648312 59.113412 
L 332.783377 64.082824 
L 328.918442 60.769882 
L 325.053506 60.769882 
L 321.188571 59.113412 
L 317.323636 62.426353 
L 313.458701 62.426353 
L 309.593766 60.769882 
L 305.728831 62.426353 
L 301.863896 64.082824 
L 297.998961 60.769882 
L 294.134026 62.426353 
L 290.269091 55.800471 
L 286.404156 57.456941 
L 282.539221 54.144 
L 278.674286 60.769882 
L 274.809351 59.113412 
L 270.944416 62.426353 
L 267.079481 59.113412 
L 263.214545 55.800471 
L 259.34961 57.456941 
L 255.484675 60.769882 
L 251.61974 62.426353 
L 247.754805 64.082824 
L 243.88987 60.769882 
L 240.024935 60.769882 
L 236.16 60.769882 
L 232.295065 59.113412 
L 228.43013 60.769882 
L 224.565195 57.456941 
L 220.70026 59.113412 
L 216.835325 59.113412 
L 212.97039 57.456941 
L 209.105455 55.800471 
L 205.240519 59.113412 
L 201.375584 54.144 
L 197.510649 59.113412 
L 193.645714 60.769882 
L 189.780779 59.113412 
L 185.915844 60.769882 
L 182.050909 59.113412 
L 178.185974 54.144 
L 174.321039 57.456941 
L 170.456104 57.456941 
L 166.591169 57.456941 
L 162.726234 59.113412 
L 158.861299 57.456941 
L 154.996364 64.082824 
L 151.131429 62.426353 
L 147.266494 62.426353 
L 143.401558 62.426353 
L 139.536623 60.769882 
L 135.671688 59.113412 
L 131.806753 59.113412 
L 127.941818 60.769882 
L 124.076883 59.113412 
L 120.211948 57.456941 
L 116.347013 55.800471 
L 112.482078 55.800471 
L 108.617143 55.800471 
L 104.752208 54.144 
L 100.887273 55.800471 
L 97.022338 60.769882 
L 93.157403 60.769882 
L 89.292468 60.769882 
L 85.427532 59.113412 
L 81.562597 59.113412 
L 77.697662 59.113412 
L 73.832727 59.113412 
z
" clip-path="url(#p657c22858f)" style="fill: #8c564b"/>
   </g>
   <g id="PolyCollection_17">
    <path d="M 73.832727 59.113412 
L 73.832727 59.113412 
L 77.697662 59.113412 
L 81.562597 59.113412 
L 85.427532 59.113412 
L 89.292468 60.769882 
L 93.157403 60.769882 
L 97.022338 60.769882 
L 100.887273 55.800471 
L 104.752208 54.144 
L 108.617143 55.800471 
L 112.482078 55.800471 
L 116.347013 55.800471 
L 120.211948 57.456941 
L 124.076883 59.113412 
L 127.941818 60.769882 
L 131.806753 59.113412 
L 135.671688 59.113412 
L 139.536623 60.769882 
L 143.401558 62.426353 
L 147.266494 62.426353 
L 151.131429 62.426353 
L 154.996364 64.082824 
L 158.861299 57.456941 
L 162.726234 59.113412 
L 166.591169 57.456941 
L 170.456104 57.456941 
L 174.321039 57.456941 
L 178.185974 54.144 
L 182.050909 59.113412 
L 185.915844 60.769882 
L 189.780779 59.113412 
L 193.645714 60.769882 
L 197.510649 59.113412 
L 201.375584 54.144 
L 205.240519 59.113412 
L 209.105455 55.800471 
L 212.97039 57.456941 
L 216.835325 59.113412 
L 220.70026 59.113412 
L 224.565195 57.456941 
L 228.43013 60.769882 
L 232.295065 59.113412 
L 236.16 60.769882 
L 240.024935 60.769882 
L 243.88987 60.769882 
L 247.754805 64.082824 
L 251.61974 62.426353 
L 255.484675 60.769882 
L 259.34961 57.456941 
L 263.214545 55.800471 
L 267.079481 59.113412 
L 270.944416 62.426353 
L 274.809351 59.113412 
L 278.674286 60.769882 
L 282.539221 54.144 
L 286.404156 57.456941 
L 290.269091 55.800471 
L 294.134026 62.426353 
L 297.998961 60.769882 
L 301.863896 64.082824 
L 305.728831 62.426353 
L 309.593766 60.769882 
L 313.458701 62.426353 
L 317.323636 62.426353 
L 321.188571 59.113412 
L 325.053506 60.769882 
L 328.918442 60.769882 
L 332.783377 64.082824 
L 336.648312 59.113412 
L 340.513247 60.769882 
L 344.378182 62.426353 
L 348.243117 60.769882 
L 352.108052 59.113412 
L 355.972987 60.769882 
L 359.837922 59.113412 
L 363.702857 59.113412 
L 367.567792 60.769882 
L 371.432727 57.456941 
L 375.297662 59.113412 
L 379.162597 97.212235 
L 383.027532 118.746353 
L 386.892468 143.593412 
L 390.757403 141.936941 
L 394.622338 138.624 
L 398.487273 141.936941 
L 398.487273 113.776941 
L 398.487273 113.776941 
L 394.622338 112.120471 
L 390.757403 113.776941 
L 386.892468 113.776941 
L 383.027532 88.929882 
L 379.162597 65.739294 
L 375.297662 57.456941 
L 371.432727 57.456941 
L 367.567792 60.769882 
L 363.702857 59.113412 
L 359.837922 59.113412 
L 355.972987 60.769882 
L 352.108052 59.113412 
L 348.243117 60.769882 
L 344.378182 62.426353 
L 340.513247 60.769882 
L 336.648312 59.113412 
L 332.783377 64.082824 
L 328.918442 60.769882 
L 325.053506 60.769882 
L 321.188571 59.113412 
L 317.323636 62.426353 
L 313.458701 62.426353 
L 309.593766 60.769882 
L 305.728831 62.426353 
L 301.863896 64.082824 
L 297.998961 60.769882 
L 294.134026 62.426353 
L 290.269091 55.800471 
L 286.404156 57.456941 
L 282.539221 54.144 
L 278.674286 60.769882 
L 274.809351 59.113412 
L 270.944416 62.426353 
L 267.079481 59.113412 
L 263.214545 55.800471 
L 259.34961 57.456941 
L 255.484675 60.769882 
L 251.61974 62.426353 
L 247.754805 64.082824 
L 243.88987 60.769882 
L 240.024935 60.769882 
L 236.16 60.769882 
L 232.295065 59.113412 
L 228.43013 60.769882 
L 224.565195 57.456941 
L 220.70026 59.113412 
L 216.835325 59.113412 
L 212.97039 57.456941 
L 209.105455 55.800471 
L 205.240519 59.113412 
L 201.375584 54.144 
L 197.510649 59.113412 
L 193.645714 60.769882 
L 189.780779 59.113412 
L 185.915844 60.769882 
L 182.050909 59.113412 
L 178.185974 54.144 
L 174.321039 57.456941 
L 170.456104 57.456941 
L 166.591169 57.456941 
L 162.726234 59.113412 
L 158.861299 57.456941 
L 154.996364 64.082824 
L 151.131429 62.426353 
L 147.266494 62.426353 
L 143.401558 62.426353 
L 139.536623 60.769882 
L 135.671688 59.113412 
L 131.806753 59.113412 
L 127.941818 60.769882 
L 124.076883 59.113412 
L 120.211948 57.456941 
L 116.347013 55.800471 
L 112.482078 55.800471 
L 108.617143 55.800471 
L 104.752208 54.144 
L 100.887273 55.800471 
L 97.022338 60.769882 
L 93.157403 60.769882 
L 89.292468 60.769882 
L 85.427532 59.113412 
L 81.562597 59.113412 
L 77.697662 59.113412 
L 73.832727 59.113412 
z
" clip-path="url(#p657c22858f)" style="fill: #e377c2"/>
   </g>
   <g id="PolyCollection_18">
    <path d="M 73.832727 59.113412 
L 73.832727 59.113412 
L 77.697662 59.113412 
L 81.562597 59.113412 
L 85.427532 59.113412 
L 89.292468 60.769882 
L 93.157403 60.769882 
L 97.022338 60.769882 
L 100.887273 55.800471 
L 104.752208 54.144 
L 108.617143 55.800471 
L 112.482078 55.800471 
L 116.347013 55.800471 
L 120.211948 57.456941 
L 124.076883 59.113412 
L 127.941818 60.769882 
L 131.806753 59.113412 
L 135.671688 59.113412 
L 139.536623 60.769882 
L 143.401558 62.426353 
L 147.266494 62.426353 
L 151.131429 62.426353 
L 154.996364 64.082824 
L 158.861299 57.456941 
L 162.726234 59.113412 
L 166.591169 57.456941 
L 170.456104 57.456941 
L 174.321039 57.456941 
L 178.185974 54.144 
L 182.050909 59.113412 
L 185.915844 60.769882 
L 189.780779 59.113412 
L 193.645714 60.769882 
L 197.510649 59.113412 
L 201.375584 54.144 
L 205.240519 59.113412 
L 209.105455 55.800471 
L 212.97039 57.456941 
L 216.835325 59.113412 
L 220.70026 59.113412 
L 224.565195 57.456941 
L 228.43013 60.769882 
L 232.295065 59.113412 
L 236.16 60.769882 
L 240.024935 60.769882 
L 243.88987 60.769882 
L 247.754805 64.082824 
L 251.61974 62.426353 
L 255.484675 60.769882 
L 259.34961 57.456941 
L 263.214545 55.800471 
L 267.079481 59.113412 
L 270.944416 62.426353 
L 274.809351 59.113412 
L 278.674286 60.769882 
L 282.539221 54.144 
L 286.404156 57.456941 
L 290.269091 55.800471 
L 294.134026 62.426353 
L 297.998961 60.769882 
L 301.863896 64.082824 
L 305.728831 62.426353 
L 309.593766 60.769882 
L 313.458701 62.426353 
L 317.323636 62.426353 
L 321.188571 59.113412 
L 325.053506 60.769882 
L 328.918442 60.769882 
L 332.783377 64.082824 
L 336.648312 59.113412 
L 340.513247 60.769882 
L 344.378182 62.426353 
L 348.243117 60.769882 
L 352.108052 59.113412 
L 355.972987 60.769882 
L 359.837922 59.113412 
L 363.702857 59.113412 
L 367.567792 60.769882 
L 371.432727 57.456941 
L 375.297662 57.456941 
L 379.162597 65.739294 
L 383.027532 88.929882 
L 386.892468 113.776941 
L 390.757403 113.776941 
L 394.622338 112.120471 
L 398.487273 113.776941 
L 398.487273 88.929882 
L 398.487273 88.929882 
L 394.622338 85.616941 
L 390.757403 88.929882 
L 386.892468 90.586353 
L 383.027532 70.708706 
L 379.162597 59.113412 
L 375.297662 57.456941 
L 371.432727 57.456941 
L 367.567792 60.769882 
L 363.702857 59.113412 
L 359.837922 59.113412 
L 355.972987 60.769882 
L 352.108052 59.113412 
L 348.243117 60.769882 
L 344.378182 62.426353 
L 340.513247 60.769882 
L 336.648312 59.113412 
L 332.783377 64.082824 
L 328.918442 60.769882 
L 325.053506 60.769882 
L 321.188571 59.113412 
L 317.323636 62.426353 
L 313.458701 62.426353 
L 309.593766 60.769882 
L 305.728831 62.426353 
L 301.863896 64.082824 
L 297.998961 60.769882 
L 294.134026 62.426353 
L 290.269091 55.800471 
L 286.404156 57.456941 
L 282.539221 54.144 
L 278.674286 60.769882 
L 274.809351 59.113412 
L 270.944416 62.426353 
L 267.079481 59.113412 
L 263.214545 55.800471 
L 259.34961 57.456941 
L 255.484675 60.769882 
L 251.61974 62.426353 
L 247.754805 64.082824 
L 243.88987 60.769882 
L 240.024935 60.769882 
L 236.16 60.769882 
L 232.295065 59.113412 
L 228.43013 60.769882 
L 224.565195 57.456941 
L 220.70026 59.113412 
L 216.835325 59.113412 
L 212.97039 57.456941 
L 209.105455 55.800471 
L 205.240519 59.113412 
L 201.375584 54.144 
L 197.510649 59.113412 
L 193.645714 60.769882 
L 189.780779 59.113412 
L 185.915844 60.769882 
L 182.050909 59.113412 
L 178.185974 54.144 
L 174.321039 57.456941 
L 170.456104 57.456941 
L 166.591169 57.456941 
L 162.726234 59.113412 
L 158.861299 57.456941 
L 154.996364 64.082824 
L 151.131429 62.426353 
L 147.266494 62.426353 
L 143.401558 62.426353 
L 139.536623 60.769882 
L 135.671688 59.113412 
L 131.806753 59.113412 
L 127.941818 60.769882 
L 124.076883 59.113412 
L 120.211948 57.456941 
L 116.347013 55.800471 
L 112.482078 55.800471 
L 108.617143 55.800471 
L 104.752208 54.144 
L 100.887273 55.800471 
L 97.022338 60.769882 
L 93.157403 60.769882 
L 89.292468 60.769882 
L 85.427532 59.113412 
L 81.562597 59.113412 
L 77.697662 59.113412 
L 73.832727 59.113412 
z
" clip-path="url(#p657c22858f)" style="fill: #7f7f7f"/>
   </g>
   <g id="PolyCollection_19">
    <path d="M 73.832727 59.113412 
L 73.832727 59.113412 
L 77.697662 59.113412 
L 81.562597 59.113412 
L 85.427532 59.113412 
L 89.292468 60.769882 
L 93.157403 60.769882 
L 97.022338 60.769882 
L 100.887273 55.800471 
L 104.752208 54.144 
L 108.617143 55.800471 
L 112.482078 55.800471 
L 116.347013 55.800471 
L 120.211948 57.456941 
L 124.076883 59.113412 
L 127.941818 60.769882 
L 131.806753 59.113412 
L 135.671688 59.113412 
L 139.536623 60.769882 
L 143.401558 62.426353 
L 147.266494 62.426353 
L 151.131429 62.426353 
L 154.996364 64.082824 
L 158.861299 57.456941 
L 162.726234 59.113412 
L 166.591169 57.456941 
L 170.456104 57.456941 
L 174.321039 57.456941 
L 178.185974 54.144 
L 182.050909 59.113412 
L 185.915844 60.769882 
L 189.780779 59.113412 
L 193.645714 60.769882 
L 197.510649 59.113412 
L 201.375584 54.144 
L 205.240519 59.113412 
L 209.105455 55.800471 
L 212.97039 57.456941 
L 216.835325 59.113412 
L 220.70026 59.113412 
L 224.565195 57.456941 
L 228.43013 60.769882 
L 232.295065 59.113412 
L 236.16 60.769882 
L 240.024935 60.769882 
L 243.88987 60.769882 
L 247.754805 64.082824 
L 251.61974 62.426353 
L 255.484675 60.769882 
L 259.34961 57.456941 
L 263.214545 55.800471 
L 267.079481 59.113412 
L 270.944416 62.426353 
L 274.809351 59.113412 
L 278.674286 60.769882 
L 282.539221 54.144 
L 286.404156 57.456941 
L 290.269091 55.800471 
L 294.134026 62.426353 
L 297.998961 60.769882 
L 301.863896 64.082824 
L 305.728831 62.426353 
L 309.593766 60.769882 
L 313.458701 62.426353 
L 317.323636 62.426353 
L 321.188571 59.113412 
L 325.053506 60.769882 
L 328.918442 60.769882 
L 332.783377 64.082824 
L 336.648312 59.113412 
L 340.513247 60.769882 
L 344.378182 62.426353 
L 348.243117 60.769882 
L 352.108052 59.113412 
L 355.972987 60.769882 
L 359.837922 59.113412 
L 363.702857 59.113412 
L 367.567792 60.769882 
L 371.432727 57.456941 
L 375.297662 57.456941 
L 379.162597 59.113412 
L 383.027532 70.708706 
L 386.892468 90.586353 
L 390.757403 88.929882 
L 394.622338 85.616941 
L 398.487273 88.929882 
L 398.487273 62.426353 
L 398.487273 62.426353 
L 394.622338 57.456941 
L 390.757403 59.113412 
L 386.892468 59.113412 
L 383.027532 59.113412 
L 379.162597 59.113412 
L 375.297662 57.456941 
L 371.432727 57.456941 
L 367.567792 60.769882 
L 363.702857 59.113412 
L 359.837922 59.113412 
L 355.972987 60.769882 
L 352.108052 59.113412 
L 348.243117 60.769882 
L 344.378182 62.426353 
L 340.513247 60.769882 
L 336.648312 59.113412 
L 332.783377 64.082824 
L 328.918442 60.769882 
L 325.053506 60.769882 
L 321.188571 59.113412 
L 317.323636 62.426353 
L 313.458701 62.426353 
L 309.593766 60.769882 
L 305.728831 62.426353 
L 301.863896 64.082824 
L 297.998961 60.769882 
L 294.134026 62.426353 
L 290.269091 55.800471 
L 286.404156 57.456941 
L 282.539221 54.144 
L 278.674286 60.769882 
L 274.809351 59.113412 
L 270.944416 62.426353 
L 267.079481 59.113412 
L 263.214545 55.800471 
L 259.34961 57.456941 
L 255.484675 60.769882 
L 251.61974 62.426353 
L 247.754805 64.082824 
L 243.88987 60.769882 
L 240.024935 60.769882 
L 236.16 60.769882 
L 232.295065 59.113412 
L 228.43013 60.769882 
L 224.565195 57.456941 
L 220.70026 59.113412 
L 216.835325 59.113412 
L 212.97039 57.456941 
L 209.105455 55.800471 
L 205.240519 59.113412 
L 201.375584 54.144 
L 197.510649 59.113412 
L 193.645714 60.769882 
L 189.780779 59.113412 
L 185.915844 60.769882 
L 182.050909 59.113412 
L 178.185974 54.144 
L 174.321039 57.456941 
L 170.456104 57.456941 
L 166.591169 57.456941 
L 162.726234 59.113412 
L 158.861299 57.456941 
L 154.996364 64.082824 
L 151.131429 62.426353 
L 147.266494 62.426353 
L 143.401558 62.426353 
L 139.536623 60.769882 
L 135.671688 59.113412 
L 131.806753 59.113412 
L 127.941818 60.769882 
L 124.076883 59.113412 
L 120.211948 57.456941 
L 116.347013 55.800471 
L 112.482078 55.800471 
L 108.617143 55.800471 
L 104.752208 54.144 
L 100.887273 55.800471 
L 97.022338 60.769882 
L 93.157403 60.769882 
L 89.292468 60.769882 
L 85.427532 59.113412 
L 81.562597 59.113412 
L 77.697662 59.113412 
L 73.832727 59.113412 
z
" clip-path="url(#p657c22858f)" style="fill: #bcbd22"/>
   </g>
   <g id="matplotlib.axis_1">
    <g id="xtick_1">
     <g id="line2d_1">
      <defs>
       <path id="m609078c317" d="M 0 0 
L 0 3.5 
" style="stroke: #000000; stroke-width: 0.8"/>
      </defs>
      <g>
       <use xlink:href="#m609078c317" x="73.832727" y="307.584" style="stroke: #000000; stroke-width: 0.8"/>
      </g>
     </g>
     <g id="text_1">
      <!-- 0 -->
      <g transform="translate(70.651477 322.182437) scale(0.1 -0.1)">
       <defs>
        <path id="DejaVuSans-30" d="M 2034 4250 
Q 1547 4250 1301 3770 
Q 1056 3291 1056 2328 
Q 1056 1369 1301 889 
Q 1547 409 2034 409 
Q 2525 409 2770 889 
Q 3016 1369 3016 2328 
Q 3016 3291 2770 3770 
Q 2525 4250 2034 4250 
z
M 2034 4750 
Q 2819 4750 3233 4129 
Q 3647 3509 3647 2328 
Q 3647 1150 3233 529 
Q 2819 -91 2034 -91 
Q 1250 -91 836 529 
Q 422 1150 422 2328 
Q 422 3509 836 4129 
Q 1250 4750 2034 4750 
z
" transform="scale(0.015625)"/>
       </defs>
       <use xlink:href="#DejaVuSans-30"/>
      </g>
     </g>
    </g>
    <g id="xtick_2">
     <g id="line2d_2">
      <g>
       <use xlink:href="#m609078c317" x="151.131429" y="307.584" style="stroke: #000000; stroke-width: 0.8"/>
      </g>
     </g>
     <g id="text_2">
      <!-- 20 -->
      <g transform="translate(144.768929 322.182437) scale(0.1 -0.1)">
       <defs>
        <path id="DejaVuSans-32" d="M 1228 531 
L 3431 531 
L 3431 0 
L 469 0 
L 469 531 
Q 828 903 1448 1529 
Q 2069 2156 2228 2338 
Q 2531 2678 2651 2914 
Q 2772 3150 2772 3378 
Q 2772 3750 2511 3984 
Q 2250 4219 1831 4219 
Q 1534 4219 1204 4116 
Q 875 4013 500 3803 
L 500 4441 
Q 881 4594 1212 4672 
Q 1544 4750 1819 4750 
Q 2544 4750 2975 4387 
Q 3406 4025 3406 3419 
Q 3406 3131 3298 2873 
Q 3191 2616 2906 2266 
Q 2828 2175 2409 1742 
Q 1991 1309 1228 531 
z
" transform="scale(0.015625)"/>
       </defs>
       <use xlink:href="#DejaVuSans-32"/>
       <use xlink:href="#DejaVuSans-30" x="63.623047"/>
      </g>
     </g>
    </g>
    <g id="xtick_3">
     <g id="line2d_3">
      <g>
       <use xlink:href="#m609078c317" x="228.43013" y="307.584" style="stroke: #000000; stroke-width: 0.8"/>
      </g>
     </g>
     <g id="text_3">
      <!-- 40 -->
      <g transform="translate(222.06763 322.182437) scale(0.1 -0.1)">
       <defs>
        <path id="DejaVuSans-34" d="M 2419 4116 
L 825 1625 
L 2419 1625 
L 2419 4116 
z
M 2253 4666 
L 3047 4666 
L 3047 1625 
L 3713 1625 
L 3713 1100 
L 3047 1100 
L 3047 0 
L 2419 0 
L 2419 1100 
L 313 1100 
L 313 1709 
L 2253 4666 
z
" transform="scale(0.015625)"/>
       </defs>
       <use xlink:href="#DejaVuSans-34"/>
       <use xlink:href="#DejaVuSans-30" x="63.623047"/>
      </g>
     </g>
    </g>
    <g id="xtick_4">
     <g id="line2d_4">
      <g>
       <use xlink:href="#m609078c317" x="305.728831" y="307.584" style="stroke: #000000; stroke-width: 0.8"/>
      </g>
     </g>
     <g id="text_4">
      <!-- 60 -->
      <g transform="translate(299.366331 322.182437) scale(0.1 -0.1)">
       <defs>
        <path id="DejaVuSans-36" d="M 2113 2584 
Q 1688 2584 1439 2293 
Q 1191 2003 1191 1497 
Q 1191 994 1439 701 
Q 1688 409 2113 409 
Q 2538 409 2786 701 
Q 3034 994 3034 1497 
Q 3034 2003 2786 2293 
Q 2538 2584 2113 2584 
z
M 3366 4563 
L 3366 3988 
Q 3128 4100 2886 4159 
Q 2644 4219 2406 4219 
Q 1781 4219 1451 3797 
Q 1122 3375 1075 2522 
Q 1259 2794 1537 2939 
Q 1816 3084 2150 3084 
Q 2853 3084 3261 2657 
Q 3669 2231 3669 1497 
Q 3669 778 3244 343 
Q 2819 -91 2113 -91 
Q 1303 -91 875 529 
Q 447 1150 447 2328 
Q 447 3434 972 4092 
Q 1497 4750 2381 4750 
Q 2619 4750 2861 4703 
Q 3103 4656 3366 4563 
z
" transform="scale(0.015625)"/>
       </defs>
       <use xlink:href="#DejaVuSans-36"/>
       <use xlink:href="#DejaVuSans-30" x="63.623047"/>
      </g>
     </g>
    </g>
    <g id="xtick_5">
     <g id="line2d_5">
      <g>
       <use xlink:href="#m609078c317" x="383.027532" y="307.584" style="stroke: #000000; stroke-width: 0.8"/>
      </g>
     </g>
     <g id="text_5">
      <!-- 80 -->
      <g transform="translate(376.665032 322.182437) scale(0.1 -0.1)">
       <defs>
        <path id="DejaVuSans-38" d="M 2034 2216 
Q 1584 2216 1326 1975 
Q 1069 1734 1069 1313 
Q 1069 891 1326 650 
Q 1584 409 2034 409 
Q 2484 409 2743 651 
Q 3003 894 3003 1313 
Q 3003 1734 2745 1975 
Q 2488 2216 2034 2216 
z
M 1403 2484 
Q 997 2584 770 2862 
Q 544 3141 544 3541 
Q 544 4100 942 4425 
Q 1341 4750 2034 4750 
Q 2731 4750 3128 4425 
Q 3525 4100 3525 3541 
Q 3525 3141 3298 2862 
Q 3072 2584 2669 2484 
Q 3125 2378 3379 2068 
Q 3634 1759 3634 1313 
Q 3634 634 3220 271 
Q 2806 -91 2034 -91 
Q 1263 -91 848 271 
Q 434 634 434 1313 
Q 434 1759 690 2068 
Q 947 2378 1403 2484 
z
M 1172 3481 
Q 1172 3119 1398 2916 
Q 1625 2713 2034 2713 
Q 2441 2713 2670 2916 
Q 2900 3119 2900 3481 
Q 2900 3844 2670 4047 
Q 2441 4250 2034 4250 
Q 1625 4250 1398 4047 
Q 1172 3844 1172 3481 
z
" transform="scale(0.015625)"/>
       </defs>
       <use xlink:href="#DejaVuSans-38"/>
       <use xlink:href="#DejaVuSans-30" x="63.623047"/>
      </g>
     </g>
    </g>
    <g id="text_6">
     <!-- Generations -->
     <g transform="translate(205.662344 335.860562) scale(0.1 -0.1)">
      <defs>
       <path id="DejaVuSans-47" d="M 3809 666 
L 3809 1919 
L 2778 1919 
L 2778 2438 
L 4434 2438 
L 4434 434 
Q 4069 175 3628 42 
Q 3188 -91 2688 -91 
Q 1594 -91 976 548 
Q 359 1188 359 2328 
Q 359 3472 976 4111 
Q 1594 4750 2688 4750 
Q 3144 4750 3555 4637 
Q 3966 4525 4313 4306 
L 4313 3634 
Q 3963 3931 3569 4081 
Q 3175 4231 2741 4231 
Q 1884 4231 1454 3753 
Q 1025 3275 1025 2328 
Q 1025 1384 1454 906 
Q 1884 428 2741 428 
Q 3075 428 3337 486 
Q 3600 544 3809 666 
z
" transform="scale(0.015625)"/>
       <path id="DejaVuSans-65" d="M 3597 1894 
L 3597 1613 
L 953 1613 
Q 991 1019 1311 708 
Q 1631 397 2203 397 
Q 2534 397 2845 478 
Q 3156 559 3463 722 
L 3463 178 
Q 3153 47 2828 -22 
Q 2503 -91 2169 -91 
Q 1331 -91 842 396 
Q 353 884 353 1716 
Q 353 2575 817 3079 
Q 1281 3584 2069 3584 
Q 2775 3584 3186 3129 
Q 3597 2675 3597 1894 
z
M 3022 2063 
Q 3016 2534 2758 2815 
Q 2500 3097 2075 3097 
Q 1594 3097 1305 2825 
Q 1016 2553 972 2059 
L 3022 2063 
z
" transform="scale(0.015625)"/>
       <path id="DejaVuSans-6e" d="M 3513 2113 
L 3513 0 
L 2938 0 
L 2938 2094 
Q 2938 2591 2744 2837 
Q 2550 3084 2163 3084 
Q 1697 3084 1428 2787 
Q 1159 2491 1159 1978 
L 1159 0 
L 581 0 
L 581 3500 
L 1159 3500 
L 1159 2956 
Q 1366 3272 1645 3428 
Q 1925 3584 2291 3584 
Q 2894 3584 3203 3211 
Q 3513 2838 3513 2113 
z
" transform="scale(0.015625)"/>
       <path id="DejaVuSans-72" d="M 2631 2963 
Q 2534 3019 2420 3045 
Q 2306 3072 2169 3072 
Q 1681 3072 1420 2755 
Q 1159 2438 1159 1844 
L 1159 0 
L 581 0 
L 581 3500 
L 1159 3500 
L 1159 2956 
Q 1341 3275 1631 3429 
Q 1922 3584 2338 3584 
Q 2397 3584 2469 3576 
Q 2541 3569 2628 3553 
L 2631 2963 
z
" transform="scale(0.015625)"/>
       <path id="DejaVuSans-61" d="M 2194 1759 
Q 1497 1759 1228 1600 
Q 959 1441 959 1056 
Q 959 750 1161 570 
Q 1363 391 1709 391 
Q 2188 391 2477 730 
Q 2766 1069 2766 1631 
L 2766 1759 
L 2194 1759 
z
M 3341 1997 
L 3341 0 
L 2766 0 
L 2766 531 
Q 2569 213 2275 61 
Q 1981 -91 1556 -91 
Q 1019 -91 701 211 
Q 384 513 384 1019 
Q 384 1609 779 1909 
Q 1175 2209 1959 2209 
L 2766 2209 
L 2766 2266 
Q 2766 2663 2505 2880 
Q 2244 3097 1772 3097 
Q 1472 3097 1187 3025 
Q 903 2953 641 2809 
L 641 3341 
Q 956 3463 1253 3523 
Q 1550 3584 1831 3584 
Q 2591 3584 2966 3190 
Q 3341 2797 3341 1997 
z
" transform="scale(0.015625)"/>
       <path id="DejaVuSans-74" d="M 1172 4494 
L 1172 3500 
L 2356 3500 
L 2356 3053 
L 1172 3053 
L 1172 1153 
Q 1172 725 1289 603 
Q 1406 481 1766 481 
L 2356 481 
L 2356 0 
L 1766 0 
Q 1100 0 847 248 
Q 594 497 594 1153 
L 594 3053 
L 172 3053 
L 172 3500 
L 594 3500 
L 594 4494 
L 1172 4494 
z
" transform="scale(0.015625)"/>
       <path id="DejaVuSans-69" d="M 603 3500 
L 1178 3500 
L 1178 0 
L 603 0 
L 603 3500 
z
M 603 4863 
L 1178 4863 
L 1178 4134 
L 603 4134 
L 603 4863 
z
" transform="scale(0.015625)"/>
       <path id="DejaVuSans-6f" d="M 1959 3097 
Q 1497 3097 1228 2736 
Q 959 2375 959 1747 
Q 959 1119 1226 758 
Q 1494 397 1959 397 
Q 2419 397 2687 759 
Q 2956 1122 2956 1747 
Q 2956 2369 2687 2733 
Q 2419 3097 1959 3097 
z
M 1959 3584 
Q 2709 3584 3137 3096 
Q 3566 2609 3566 1747 
Q 3566 888 3137 398 
Q 2709 -91 1959 -91 
Q 1206 -91 779 398 
Q 353 888 353 1747 
Q 353 2609 779 3096 
Q 1206 3584 1959 3584 
z
" transform="scale(0.015625)"/>
       <path id="DejaVuSans-73" d="M 2834 3397 
L 2834 2853 
Q 2591 2978 2328 3040 
Q 2066 3103 1784 3103 
Q 1356 3103 1142 2972 
Q 928 2841 928 2578 
Q 928 2378 1081 2264 
Q 1234 2150 1697 2047 
L 1894 2003 
Q 2506 1872 2764 1633 
Q 3022 1394 3022 966 
Q 3022 478 2636 193 
Q 2250 -91 1575 -91 
Q 1294 -91 989 -36 
Q 684 19 347 128 
L 347 722 
Q 666 556 975 473 
Q 1284 391 1588 391 
Q 1994 391 2212 530 
Q 2431 669 2431 922 
Q 2431 1156 2273 1281 
Q 2116 1406 1581 1522 
L 1381 1569 
Q 847 1681 609 1914 
Q 372 2147 372 2553 
Q 372 3047 722 3315 
Q 1072 3584 1716 3584 
Q 2034 3584 2315 3537 
Q 2597 3491 2834 3397 
z
" transform="scale(0.015625)"/>
      </defs>
      <use xlink:href="#DejaVuSans-47"/>
      <use xlink:href="#DejaVuSans-65" x="77.490234"/>
      <use xlink:href="#DejaVuSans-6e" x="139.013672"/>
      <use xlink:href="#DejaVuSans-65" x="202.392578"/>
      <use xlink:href="#DejaVuSans-72" x="263.916016"/>
      <use xlink:href="#DejaVuSans-61" x="305.029297"/>
      <use xlink:href="#DejaVuSans-74" x="366.308594"/>
      <use xlink:href="#DejaVuSans-69" x="405.517578"/>
      <use xlink:href="#DejaVuSans-6f" x="433.300781"/>
      <use xlink:href="#DejaVuSans-6e" x="494.482422"/>
      <use xlink:href="#DejaVuSans-73" x="557.861328"/>
     </g>
    </g>
   </g>
   <g id="matplotlib.axis_2">
    <g id="ytick_1">
     <g id="line2d_6">
      <defs>
       <path id="m0a5eeba1e5" d="M 0 0 
L -3.5 0 
" style="stroke: #000000; stroke-width: 0.8"/>
      </defs>
      <g>
       <use xlink:href="#m0a5eeba1e5" x="57.6" y="307.584" style="stroke: #000000; stroke-width: 0.8"/>
      </g>
     </g>
     <g id="text_7">
      <!-- 0 -->
      <g transform="translate(44.2375 311.383219) scale(0.1 -0.1)">
       <use xlink:href="#DejaVuSans-30"/>
      </g>
     </g>
    </g>
    <g id="ytick_2">
     <g id="line2d_7">
      <g>
       <use xlink:href="#m0a5eeba1e5" x="57.6" y="274.454588" style="stroke: #000000; stroke-width: 0.8"/>
      </g>
     </g>
     <g id="text_8">
      <!-- 20 -->
      <g transform="translate(37.875 278.253807) scale(0.1 -0.1)">
       <use xlink:href="#DejaVuSans-32"/>
       <use xlink:href="#DejaVuSans-30" x="63.623047"/>
      </g>
     </g>
    </g>
    <g id="ytick_3">
     <g id="line2d_8">
      <g>
       <use xlink:href="#m0a5eeba1e5" x="57.6" y="241.325176" style="stroke: #000000; stroke-width: 0.8"/>
      </g>
     </g>
     <g id="text_9">
      <!-- 40 -->
      <g transform="translate(37.875 245.124395) scale(0.1 -0.1)">
       <use xlink:href="#DejaVuSans-34"/>
       <use xlink:href="#DejaVuSans-30" x="63.623047"/>
      </g>
     </g>
    </g>
    <g id="ytick_4">
     <g id="line2d_9">
      <g>
       <use xlink:href="#m0a5eeba1e5" x="57.6" y="208.195765" style="stroke: #000000; stroke-width: 0.8"/>
      </g>
     </g>
     <g id="text_10">
      <!-- 60 -->
      <g transform="translate(37.875 211.994983) scale(0.1 -0.1)">
       <use xlink:href="#DejaVuSans-36"/>
       <use xlink:href="#DejaVuSans-30" x="63.623047"/>
      </g>
     </g>
    </g>
    <g id="ytick_5">
     <g id="line2d_10">
      <g>
       <use xlink:href="#m0a5eeba1e5" x="57.6" y="175.066353" style="stroke: #000000; stroke-width: 0.8"/>
      </g>
     </g>
     <g id="text_11">
      <!-- 80 -->
      <g transform="translate(37.875 178.865572) scale(0.1 -0.1)">
       <use xlink:href="#DejaVuSans-38"/>
       <use xlink:href="#DejaVuSans-30" x="63.623047"/>
      </g>
     </g>
    </g>
    <g id="ytick_6">
     <g id="line2d_11">
      <g>
       <use xlink:href="#m0a5eeba1e5" x="57.6" y="141.936941" style="stroke: #000000; stroke-width: 0.8"/>
      </g>
     </g>
     <g id="text_12">
      <!-- 100 -->
      <g transform="translate(31.5125 145.73616) scale(0.1 -0.1)">
       <defs>
        <path id="DejaVuSans-31" d="M 794 531 
L 1825 531 
L 1825 4091 
L 703 3866 
L 703 4441 
L 1819 4666 
L 2450 4666 
L 2450 531 
L 3481 531 
L 3481 0 
L 794 0 
L 794 531 
z
" transform="scale(0.015625)"/>
       </defs>
       <use xlink:href="#DejaVuSans-31"/>
       <use xlink:href="#DejaVuSans-30" x="63.623047"/>
       <use xlink:href="#DejaVuSans-30" x="127.246094"/>
      </g>
     </g>
    </g>
    <g id="ytick_7">
     <g id="line2d_12">
      <g>
       <use xlink:href="#m0a5eeba1e5" x="57.6" y="108.807529" style="stroke: #000000; stroke-width: 0.8"/>
      </g>
     </g>
     <g id="text_13">
      <!-- 120 -->
      <g transform="translate(31.5125 112.606748) scale(0.1 -0.1)">
       <use xlink:href="#DejaVuSans-31"/>
       <use xlink:href="#DejaVuSans-32" x="63.623047"/>
       <use xlink:href="#DejaVuSans-30" x="127.246094"/>
      </g>
     </g>
    </g>
    <g id="ytick_8">
     <g id="line2d_13">
      <g>
       <use xlink:href="#m0a5eeba1e5" x="57.6" y="75.678118" style="stroke: #000000; stroke-width: 0.8"/>
      </g>
     </g>
     <g id="text_14">
      <!-- 140 -->
      <g transform="translate(31.5125 79.477336) scale(0.1 -0.1)">
       <use xlink:href="#DejaVuSans-31"/>
       <use xlink:href="#DejaVuSans-34" x="63.623047"/>
       <use xlink:href="#DejaVuSans-30" x="127.246094"/>
      </g>
     </g>
    </g>
    <g id="ytick_9">
     <g id="line2d_14">
      <g>
       <use xlink:href="#m0a5eeba1e5" x="57.6" y="42.548706" style="stroke: #000000; stroke-width: 0.8"/>
      </g>
     </g>
     <g id="text_15">
      <!-- 160 -->
      <g transform="translate(31.5125 46.347925) scale(0.1 -0.1)">
       <use xlink:href="#DejaVuSans-31"/>
       <use xlink:href="#DejaVuSans-36" x="63.623047"/>
       <use xlink:href="#DejaVuSans-30" x="127.246094"/>
      </g>
     </g>
    </g>
    <g id="text_16">
     <!-- Size per Species -->
     <g transform="translate(25.432812 215.520969) rotate(-90) scale(0.1 -0.1)">
      <defs>
       <path id="DejaVuSans-53" d="M 3425 4513 
L 3425 3897 
Q 3066 4069 2747 4153 
Q 2428 4238 2131 4238 
Q 1616 4238 1336 4038 
Q 1056 3838 1056 3469 
Q 1056 3159 1242 3001 
Q 1428 2844 1947 2747 
L 2328 2669 
Q 3034 2534 3370 2195 
Q 3706 1856 3706 1288 
Q 3706 609 3251 259 
Q 2797 -91 1919 -91 
Q 1588 -91 1214 -16 
Q 841 59 441 206 
L 441 856 
Q 825 641 1194 531 
Q 1563 422 1919 422 
Q 2459 422 2753 634 
Q 3047 847 3047 1241 
Q 3047 1584 2836 1778 
Q 2625 1972 2144 2069 
L 1759 2144 
Q 1053 2284 737 2584 
Q 422 2884 422 3419 
Q 422 4038 858 4394 
Q 1294 4750 2059 4750 
Q 2388 4750 2728 4690 
Q 3069 4631 3425 4513 
z
" transform="scale(0.015625)"/>
       <path id="DejaVuSans-7a" d="M 353 3500 
L 3084 3500 
L 3084 2975 
L 922 459 
L 3084 459 
L 3084 0 
L 275 0 
L 275 525 
L 2438 3041 
L 353 3041 
L 353 3500 
z
" transform="scale(0.015625)"/>
       <path id="DejaVuSans-20" transform="scale(0.015625)"/>
       <path id="DejaVuSans-70" d="M 1159 525 
L 1159 -1331 
L 581 -1331 
L 581 3500 
L 1159 3500 
L 1159 2969 
Q 1341 3281 1617 3432 
Q 1894 3584 2278 3584 
Q 2916 3584 3314 3078 
Q 3713 2572 3713 1747 
Q 3713 922 3314 415 
Q 2916 -91 2278 -91 
Q 1894 -91 1617 61 
Q 1341 213 1159 525 
z
M 3116 1747 
Q 3116 2381 2855 2742 
Q 2594 3103 2138 3103 
Q 1681 3103 1420 2742 
Q 1159 2381 1159 1747 
Q 1159 1113 1420 752 
Q 1681 391 2138 391 
Q 2594 391 2855 752 
Q 3116 1113 3116 1747 
z
" transform="scale(0.015625)"/>
       <path id="DejaVuSans-63" d="M 3122 3366 
L 3122 2828 
Q 2878 2963 2633 3030 
Q 2388 3097 2138 3097 
Q 1578 3097 1268 2742 
Q 959 2388 959 1747 
Q 959 1106 1268 751 
Q 1578 397 2138 397 
Q 2388 397 2633 464 
Q 2878 531 3122 666 
L 3122 134 
Q 2881 22 2623 -34 
Q 2366 -91 2075 -91 
Q 1284 -91 818 406 
Q 353 903 353 1747 
Q 353 2603 823 3093 
Q 1294 3584 2113 3584 
Q 2378 3584 2631 3529 
Q 2884 3475 3122 3366 
z
" transform="scale(0.015625)"/>
      </defs>
      <use xlink:href="#DejaVuSans-53"/>
      <use xlink:href="#DejaVuSans-69" x="63.476562"/>
      <use xlink:href="#DejaVuSans-7a" x="91.259766"/>
      <use xlink:href="#DejaVuSans-65" x="143.75"/>
      <use xlink:href="#DejaVuSans-20" x="205.273438"/>
      <use xlink:href="#DejaVuSans-70" x="237.060547"/>
      <use xlink:href="#DejaVuSans-65" x="300.537109"/>
      <use xlink:href="#DejaVuSans-72" x="362.060547"/>
      <use xlink:href="#DejaVuSans-20" x="403.173828"/>
      <use xlink:href="#DejaVuSans-53" x="434.960938"/>
      <use xlink:href="#DejaVuSans-70" x="498.4375"/>
      <use xlink:href="#DejaVuSans-65" x="561.914062"/>
      <use xlink:href="#DejaVuSans-63" x="623.4375"/>
      <use xlink:href="#DejaVuSans-69" x="678.417969"/>
      <use xlink:href="#DejaVuSans-65" x="706.201172"/>
      <use xlink:href="#DejaVuSans-73" x="767.724609"/>
     </g>
    </g>
   </g>
   <g id="patch_3">
    <path d="M 57.6 307.584 
L 57.6 41.472 
" style="fill: none; stroke: #000000; stroke-width: 0.8; stroke-linejoin: miter; stroke-linecap: square"/>
   </g>
   <g id="patch_4">
    <path d="M 414.72 307.584 
L 414.72 41.472 
" style="fill: none; stroke: #000000; stroke-width: 0.8; stroke-linejoin: miter; stroke-linecap: square"/>
   </g>
   <g id="patch_5">
    <path d="M 57.6 307.584 
L 414.72 307.584 
" style="fill: none; stroke: #000000; stroke-width: 0.8; stroke-linejoin: miter; stroke-linecap: square"/>
   </g>
   <g id="patch_6">
    <path d="M 57.6 41.472 
L 414.72 41.472 
" style="fill: none; stroke: #000000; stroke-width: 0.8; stroke-linejoin: miter; stroke-linecap: square"/>
   </g>
   <g id="text_17">
    <!-- Speciation -->
    <g transform="translate(204.714375 35.472) scale(0.12 -0.12)">
     <use xlink:href="#DejaVuSans-53"/>
     <use xlink:href="#DejaVuSans-70" x="63.476562"/>
     <use xlink:href="#DejaVuSans-65" x="126.953125"/>
     <use xlink:href="#DejaVuSans-63" x="188.476562"/>
     <use xlink:href="#DejaVuSans-69" x="243.457031"/>
     <use xlink:href="#DejaVuSans-61" x="271.240234"/>
     <use xlink:href="#DejaVuSans-74" x="332.519531"/>
     <use xlink:href="#DejaVuSans-69" x="371.728516"/>
     <use xlink:href="#DejaVuSans-6f" x="399.511719"/>
     <use xlink:href="#DejaVuSans-6e" x="460.693359"/>
    </g>
   </g>
  </g>
 </g>
 <defs>
  <clipPath id="p657c22858f">
   <rect x="57.6" y="41.472" width="357.12" height="266.112"/>
  </clipPath>
 </defs>
</svg>
