<?xml version="1.0" encoding="UTF-8" standalone="no"?>
<!DOCTYPE svg PUBLIC "-//W3C//DTD SVG 1.1//EN"
 "http://www.w3.org/Graphics/SVG/1.1/DTD/svg11.dtd">
<!-- Generated by graphviz version 2.43.0 (0)
 -->
<!-- Title: %3 Pages: 1 -->
<svg width="375pt" height="266pt"
 viewBox="0.00 0.00 375.01 265.52" xmlns="http://www.w3.org/2000/svg" xmlns:xlink="http://www.w3.org/1999/xlink">
<g id="graph0" class="graph" transform="scale(1 1) rotate(0) translate(4 261.52)">
<title>%3</title>
<polygon fill="white" stroke="transparent" points="-4,4 -4,-261.52 371.01,-261.52 371.01,4 -4,4"/>
<!-- &#45;1 -->
<g id="node1" class="node">
<title>&#45;1</title>
<polygon fill="lightgray" stroke="black" points="137.75,-102.28 111.75,-102.28 111.75,-84.28 137.75,-84.28 137.75,-102.28"/>
<text text-anchor="middle" x="124.75" y="-91.08" font-family="Times,serif" font-size="9.00">&#45;1</text>
</g>
<!-- 0 -->
<g id="node9" class="node">
<title>0</title>
<ellipse fill="lightblue" stroke="black" cx="178.75" cy="-16.26" rx="16.03" ry="16.03"/>
<text text-anchor="middle" x="178.75" y="-14.06" font-family="Times,serif" font-size="9.00">0</text>
</g>
<!-- &#45;1&#45;&gt;0 -->
<g id="edge17" class="edge">
<title>&#45;1&#45;&gt;0</title>
<path fill="none" stroke="red" stroke-width="0.57" stroke-dasharray="1,5" d="M130.53,-84.25C138.35,-73.38 152.6,-53.59 163.58,-38.33"/>
<polygon fill="red" stroke="red" stroke-width="0.57" points="166.6,-40.13 169.6,-29.97 160.92,-36.04 166.6,-40.13"/>
</g>
<!-- 3 -->
<g id="node12" class="node">
<title>3</title>
<ellipse fill="lightblue" stroke="black" cx="110.75" cy="-16.26" rx="16.03" ry="16.03"/>
<text text-anchor="middle" x="110.75" y="-14.06" font-family="Times,serif" font-size="9.00">3</text>
</g>
<!-- &#45;1&#45;&gt;3 -->
<g id="edge7" class="edge">
<title>&#45;1&#45;&gt;3</title>
<path fill="none" stroke="green" stroke-width="0.79" d="M123.25,-84.25C121.4,-74.33 118.16,-56.99 115.45,-42.44"/>
<polygon fill="green" stroke="green" stroke-width="0.79" points="118.86,-41.67 113.59,-32.48 111.98,-42.96 118.86,-41.67"/>
</g>
<!-- &#45;2 -->
<g id="node2" class="node">
<title>&#45;2</title>
<polygon fill="lightgray" stroke="black" points="93.75,-102.28 67.75,-102.28 67.75,-84.28 93.75,-84.28 93.75,-102.28"/>
<text text-anchor="middle" x="80.75" y="-91.08" font-family="Times,serif" font-size="9.00">&#45;2</text>
</g>
<!-- &#45;2&#45;&gt;0 -->
<g id="edge6" class="edge">
<title>&#45;2&#45;&gt;0</title>
<path fill="none" stroke="green" stroke-width="0.38" d="M87.65,-83.91C91.79,-79.15 97.29,-73.21 102.75,-68.53 119.46,-54.2 140.3,-40.4 155.92,-30.73"/>
<polygon fill="green" stroke="green" stroke-width="0.38" points="158.17,-33.46 164.9,-25.27 154.53,-27.48 158.17,-33.46"/>
</g>
<!-- &#45;2&#45;&gt;3 -->
<g id="edge1" class="edge">
<title>&#45;2&#45;&gt;3</title>
<path fill="none" stroke="red" stroke-width="0.22" stroke-dasharray="1,5" d="M83.96,-84.25C88.04,-74.05 95.25,-56.01 101.17,-41.21"/>
<polygon fill="red" stroke="red" stroke-width="0.22" points="104.54,-42.21 105,-31.63 98.04,-39.61 104.54,-42.21"/>
</g>
<!-- &#45;3 -->
<g id="node3" class="node">
<title>&#45;3</title>
<polygon fill="lightgray" stroke="black" points="90.75,-257.52 64.75,-257.52 64.75,-239.52 90.75,-239.52 90.75,-257.52"/>
<text text-anchor="middle" x="77.75" y="-246.32" font-family="Times,serif" font-size="9.00">&#45;3</text>
</g>
<!-- 1 -->
<g id="node10" class="node">
<title>1</title>
<ellipse fill="lightblue" stroke="black" cx="121.75" cy="-178.77" rx="16.03" ry="16.03"/>
<text text-anchor="middle" x="121.75" y="-176.57" font-family="Times,serif" font-size="9.00">1</text>
</g>
<!-- &#45;3&#45;&gt;1 -->
<g id="edge10" class="edge">
<title>&#45;3&#45;&gt;1</title>
<path fill="none" stroke="green" stroke-width="0.64" d="M82.97,-239.48C89.04,-230.14 99.29,-214.35 107.74,-201.35"/>
<polygon fill="green" stroke="green" stroke-width="0.64" points="110.7,-203.2 113.22,-192.91 104.83,-199.39 110.7,-203.2"/>
</g>
<!-- &#45;4 -->
<g id="node4" class="node">
<title>&#45;4</title>
<polygon fill="lightgray" stroke="black" points="363.75,-102.28 337.75,-102.28 337.75,-84.28 363.75,-84.28 363.75,-102.28"/>
<text text-anchor="middle" x="350.75" y="-91.08" font-family="Times,serif" font-size="9.00">&#45;4</text>
</g>
<!-- &#45;4&#45;&gt;0 -->
<g id="edge5" class="edge">
<title>&#45;4&#45;&gt;0</title>
<path fill="none" stroke="green" stroke-width="0.15" d="M342.88,-83.89C337.81,-78.88 330.86,-72.7 323.75,-68.53 284.98,-45.78 234.51,-30.78 204.48,-23.18"/>
<polygon fill="green" stroke="green" stroke-width="0.15" points="204.95,-19.69 194.4,-20.71 203.28,-26.49 204.95,-19.69"/>
</g>
<!-- 2 -->
<g id="node11" class="node">
<title>2</title>
<ellipse fill="lightblue" stroke="black" cx="350.75" cy="-16.26" rx="16.03" ry="16.03"/>
<text text-anchor="middle" x="350.75" y="-14.06" font-family="Times,serif" font-size="9.00">2</text>
</g>
<!-- &#45;4&#45;&gt;2 -->
<g id="edge8" class="edge">
<title>&#45;4&#45;&gt;2</title>
<path fill="none" stroke="red" stroke-width="1.41" d="M350.75,-84.25C350.75,-74.49 350.75,-57.54 350.75,-43.13"/>
<polygon fill="red" stroke="red" stroke-width="1.41" points="354.25,-42.77 350.75,-32.77 347.25,-42.77 354.25,-42.77"/>
</g>
<!-- &#45;5 -->
<g id="node5" class="node">
<title>&#45;5</title>
<polygon fill="lightgray" stroke="black" points="134.75,-257.52 108.75,-257.52 108.75,-239.52 134.75,-239.52 134.75,-257.52"/>
<text text-anchor="middle" x="121.75" y="-246.32" font-family="Times,serif" font-size="9.00">&#45;5</text>
</g>
<!-- &#45;5&#45;&gt;1 -->
<g id="edge3" class="edge">
<title>&#45;5&#45;&gt;1</title>
<path fill="none" stroke="red" stroke-width="0.39" d="M121.75,-239.48C121.75,-231.08 121.75,-217.45 121.75,-205.34"/>
<polygon fill="red" stroke="red" stroke-width="0.39" points="125.25,-205.25 121.75,-195.25 118.25,-205.25 125.25,-205.25"/>
</g>
<!-- &#45;6 -->
<g id="node6" class="node">
<title>&#45;6</title>
<polygon fill="lightgray" stroke="black" points="178.75,-257.52 152.75,-257.52 152.75,-239.52 178.75,-239.52 178.75,-257.52"/>
<text text-anchor="middle" x="165.75" y="-246.32" font-family="Times,serif" font-size="9.00">&#45;6</text>
</g>
<!-- &#45;6&#45;&gt;0 -->
<g id="edge4" class="edge">
<title>&#45;6&#45;&gt;0</title>
<path fill="none" stroke="green" stroke-width="0.36" stroke-dasharray="1,5" d="M166.21,-239.33C167.99,-207.9 174.4,-94.31 177.3,-42.88"/>
<polygon fill="green" stroke="green" stroke-width="0.36" points="180.81,-42.8 177.88,-32.62 173.82,-42.4 180.81,-42.8"/>
</g>
<!-- &#45;6&#45;&gt;1 -->
<g id="edge2" class="edge">
<title>&#45;6&#45;&gt;1</title>
<path fill="none" stroke="red" stroke-width="0.94" d="M160.53,-239.48C154.46,-230.14 144.2,-214.35 135.76,-201.35"/>
<polygon fill="red" stroke="red" stroke-width="0.94" points="138.66,-199.39 130.28,-192.91 132.79,-203.2 138.66,-199.39"/>
</g>
<!-- &#45;7 -->
<g id="node7" class="node">
<title>&#45;7</title>
<polygon fill="lightgray" stroke="black" points="257.75,-257.52 231.75,-257.52 231.75,-239.52 257.75,-239.52 257.75,-257.52"/>
<text text-anchor="middle" x="244.75" y="-246.32" font-family="Times,serif" font-size="9.00">&#45;7</text>
</g>
<!-- &#45;7&#45;&gt;0 -->
<g id="edge11" class="edge">
<title>&#45;7&#45;&gt;0</title>
<path fill="none" stroke="red" stroke-width="0.42" stroke-dasharray="1,5" d="M250.89,-239.29C256.79,-230.83 265.31,-217.01 268.75,-203.52 283.68,-144.98 285.6,-119.23 252.75,-68.53 240.74,-50 219.45,-36.31 202.78,-27.76"/>
<polygon fill="red" stroke="red" stroke-width="0.42" points="204.13,-24.52 193.6,-23.32 201.08,-30.83 204.13,-24.52"/>
</g>
<!-- &#45;7&#45;&gt;1 -->
<g id="edge9" class="edge">
<title>&#45;7&#45;&gt;1</title>
<path fill="none" stroke="green" stroke-width="0.36" d="M231.59,-240.27C210.81,-228.83 170.17,-206.44 144.57,-192.34"/>
<polygon fill="green" stroke="green" stroke-width="0.36" points="146.02,-189.14 135.57,-187.38 142.64,-195.27 146.02,-189.14"/>
</g>
<!-- 891 -->
<g id="node14" class="node">
<title>891</title>
<ellipse fill="white" stroke="black" cx="218.75" cy="-93.28" rx="25" ry="25"/>
<text text-anchor="middle" x="218.75" y="-91.08" font-family="Times,serif" font-size="9.00">891</text>
</g>
<!-- &#45;7&#45;&gt;891 -->
<g id="edge13" class="edge">
<title>&#45;7&#45;&gt;891</title>
<path fill="none" stroke="red" stroke-width="0.53" stroke-dasharray="1,5" d="M247.28,-239.36C251.98,-222.91 260.88,-184.74 252.75,-154.02 249.83,-143.01 244.36,-131.9 238.65,-122.29"/>
<polygon fill="red" stroke="red" stroke-width="0.53" points="241.46,-120.2 233.17,-113.6 235.54,-123.93 241.46,-120.2"/>
</g>
<!-- 951 -->
<g id="node15" class="node">
<title>951</title>
<ellipse fill="white" stroke="black" cx="218.75" cy="-178.77" rx="25" ry="25"/>
<text text-anchor="middle" x="218.75" y="-176.57" font-family="Times,serif" font-size="9.00">951</text>
</g>
<!-- &#45;7&#45;&gt;951 -->
<g id="edge15" class="edge">
<title>&#45;7&#45;&gt;951</title>
<path fill="none" stroke="red" stroke-width="0.26" d="M241.66,-239.48C238.97,-232.45 234.86,-221.77 230.87,-211.37"/>
<polygon fill="red" stroke="red" stroke-width="0.26" points="234.13,-210.09 227.28,-202.01 227.6,-212.6 234.13,-210.09"/>
</g>
<!-- &#45;8 -->
<g id="node8" class="node">
<title>&#45;8</title>
<polygon fill="lightgray" stroke="black" points="301.75,-257.52 275.75,-257.52 275.75,-239.52 301.75,-239.52 301.75,-257.52"/>
<text text-anchor="middle" x="288.75" y="-246.32" font-family="Times,serif" font-size="9.00">&#45;8</text>
</g>
<!-- 772 -->
<g id="node13" class="node">
<title>772</title>
<ellipse fill="white" stroke="black" cx="24.75" cy="-93.28" rx="25" ry="25"/>
<text text-anchor="middle" x="24.75" y="-91.08" font-family="Times,serif" font-size="9.00">772</text>
</g>
<!-- 772&#45;&gt;3 -->
<g id="edge12" class="edge">
<title>772&#45;&gt;3</title>
<path fill="none" stroke="green" stroke-width="0.68" d="M42.99,-76.37C57.08,-64.07 76.56,-47.08 91.02,-34.47"/>
<polygon fill="green" stroke="green" stroke-width="0.68" points="93.64,-36.83 98.88,-27.62 89.04,-31.56 93.64,-36.83"/>
</g>
<!-- 891&#45;&gt;0 -->
<g id="edge14" class="edge">
<title>891&#45;&gt;0</title>
<path fill="none" stroke="red" stroke-width="0.75" d="M207.39,-70.98C202.21,-61.26 196.07,-49.75 190.81,-39.88"/>
<polygon fill="red" stroke="red" stroke-width="0.75" points="193.88,-38.21 186.09,-31.03 187.71,-41.5 193.88,-38.21"/>
</g>
<!-- 891&#45;&gt;3 -->
<g id="edge18" class="edge">
<title>891&#45;&gt;3</title>
<path fill="none" stroke="green" stroke-width="0.15" d="M198.69,-78.34C179.84,-65.25 151.7,-45.71 132.36,-32.27"/>
<polygon fill="green" stroke="green" stroke-width="0.15" points="134.11,-29.23 123.9,-26.4 130.12,-34.98 134.11,-29.23"/>
</g>
<!-- 951&#45;&gt;891 -->
<g id="edge16" class="edge">
<title>951&#45;&gt;891</title>
<path fill="none" stroke="green" stroke-width="0.42" d="M218.75,-153.62C218.75,-145.68 218.75,-136.69 218.75,-128.16"/>
<polygon fill="green" stroke="green" stroke-width="0.42" points="222.25,-128.08 218.75,-118.08 215.25,-128.08 222.25,-128.08"/>
</g>
</g>
</svg>
