<?xml version="1.0" encoding="UTF-8" standalone="no"?>
<!DOCTYPE svg PUBLIC "-//W3C//DTD SVG 1.1//EN"
 "http://www.w3.org/Graphics/SVG/1.1/DTD/svg11.dtd">
<!-- Generated by graphviz version 2.43.0 (0)
 -->
<!-- Title: %3 Pages: 1 -->
<svg width="944pt" height="441pt"
 viewBox="0.00 0.00 943.71 440.88" xmlns="http://www.w3.org/2000/svg" xmlns:xlink="http://www.w3.org/1999/xlink">
<g id="graph0" class="graph" transform="scale(1 1) rotate(0) translate(4 436.88)">
<title>%3</title>
<polygon fill="white" stroke="transparent" points="-4,4 -4,-436.88 939.71,-436.88 939.71,4 -4,4"/>
<!-- X position -->
<g id="node1" class="node">
<title>X position</title>
<polygon fill="lightgray" stroke="black" points="356.25,-277.64 293.25,-277.64 293.25,-259.64 356.25,-259.64 356.25,-277.64"/>
<text text-anchor="middle" x="324.75" y="-266.44" font-family="Times,serif" font-size="9.00">X position</text>
</g>
<!-- fire left orientation engine -->
<g id="node10" class="node">
<title>fire left orientation engine</title>
<ellipse fill="lightblue" stroke="black" cx="298.75" cy="-103.94" rx="98.08" ry="98.08"/>
<text text-anchor="middle" x="298.75" y="-101.74" font-family="Times,serif" font-size="9.00">fire left orientation engine</text>
</g>
<!-- X position&#45;&gt;fire left orientation engine -->
<g id="edge9" class="edge">
<title>X position&#45;&gt;fire left orientation engine</title>
<path fill="none" stroke="green" stroke-width="0.88" d="M323.42,-259.35C321.83,-249.39 318.97,-231.47 315.74,-211.29"/>
<polygon fill="green" stroke="green" stroke-width="0.88" points="319.17,-210.54 314.13,-201.22 312.26,-211.64 319.17,-210.54"/>
</g>
<!-- Y position -->
<g id="node2" class="node">
<title>Y position</title>
<polygon fill="lightgray" stroke="black" points="792.75,-277.64 730.75,-277.64 730.75,-259.64 792.75,-259.64 792.75,-277.64"/>
<text text-anchor="middle" x="761.75" y="-266.44" font-family="Times,serif" font-size="9.00">Y position</text>
</g>
<!-- do nothing -->
<g id="node9" class="node">
<title>do nothing</title>
<ellipse fill="lightblue" stroke="black" cx="861.75" cy="-103.94" rx="47.25" ry="47.25"/>
<text text-anchor="middle" x="861.75" y="-101.74" font-family="Times,serif" font-size="9.00">do nothing</text>
</g>
<!-- Y position&#45;&gt;do nothing -->
<g id="edge2" class="edge">
<title>Y position&#45;&gt;do nothing</title>
<path fill="none" stroke="red" stroke-width="0.42" d="M766.85,-259.35C778.67,-240.1 808.74,-191.18 831.89,-153.52"/>
<polygon fill="red" stroke="red" stroke-width="0.42" points="835.06,-155.05 837.31,-144.7 829.1,-151.38 835.06,-155.05"/>
</g>
<!-- fire right orientation engine -->
<g id="node12" class="node">
<title>fire right orientation engine</title>
<ellipse fill="lightblue" stroke="black" cx="666.75" cy="-103.94" rx="103.89" ry="103.89"/>
<text text-anchor="middle" x="666.75" y="-101.74" font-family="Times,serif" font-size="9.00">fire right orientation engine</text>
</g>
<!-- Y position&#45;&gt;fire right orientation engine -->
<g id="edge10" class="edge">
<title>Y position&#45;&gt;fire right orientation engine</title>
<path fill="none" stroke="red" stroke-width="0.26" stroke-dasharray="1,5" d="M756.91,-259.35C750.31,-248.04 737.73,-226.5 724.01,-203.01"/>
<polygon fill="red" stroke="red" stroke-width="0.26" points="726.98,-201.16 718.92,-194.29 720.94,-204.69 726.98,-201.16"/>
</g>
<!-- linear velocity X -->
<g id="node3" class="node">
<title>linear velocity X</title>
<polygon fill="lightgray" stroke="black" points="712.75,-277.64 620.75,-277.64 620.75,-259.64 712.75,-259.64 712.75,-277.64"/>
<text text-anchor="middle" x="666.75" y="-266.44" font-family="Times,serif" font-size="9.00">linear velocity X</text>
</g>
<!-- linear velocity X&#45;&gt;do nothing -->
<g id="edge11" class="edge">
<title>linear velocity X&#45;&gt;do nothing</title>
<path fill="none" stroke="green" stroke-width="0.11" d="M683.91,-259.63C711.41,-246.63 763.86,-221.06 779.75,-207.89 798.75,-192.14 816.31,-171.35 830.27,-152.58"/>
<polygon fill="green" stroke="green" stroke-width="0.11" points="833.17,-154.55 836.22,-144.4 827.51,-150.43 833.17,-154.55"/>
</g>
<!-- linear velocity X&#45;&gt;fire left orientation engine -->
<g id="edge15" class="edge">
<title>linear velocity X&#45;&gt;fire left orientation engine</title>
<path fill="none" stroke="green" stroke-width="0.39" d="M650.76,-259.54C639.98,-254.39 625.3,-247.94 611.75,-243.89 522.69,-217.28 488.63,-249.94 405.75,-207.89 393.63,-201.74 381.97,-193.76 371.09,-184.96"/>
<polygon fill="green" stroke="green" stroke-width="0.39" points="373.21,-182.18 363.31,-178.43 368.71,-187.54 373.21,-182.18"/>
</g>
<!-- linear velocity X&#45;&gt;fire right orientation engine -->
<g id="edge7" class="edge">
<title>linear velocity X&#45;&gt;fire right orientation engine</title>
<path fill="none" stroke="red" stroke-width="0.19" d="M666.75,-259.35C666.75,-250.58 666.75,-235.65 666.75,-218.42"/>
<polygon fill="red" stroke="red" stroke-width="0.19" points="670.25,-218.05 666.75,-208.05 663.25,-218.05 670.25,-218.05"/>
</g>
<!-- linear velocity Y -->
<g id="node4" class="node">
<title>linear velocity Y</title>
<polygon fill="lightgray" stroke="black" points="568.75,-363.14 476.75,-363.14 476.75,-345.14 568.75,-345.14 568.75,-363.14"/>
<text text-anchor="middle" x="522.75" y="-351.94" font-family="Times,serif" font-size="9.00">linear velocity Y</text>
</g>
<!-- linear velocity Y&#45;&gt;do nothing -->
<g id="edge5" class="edge">
<title>linear velocity Y&#45;&gt;do nothing</title>
<path fill="none" stroke="green" stroke-width="0.45" d="M568.77,-345.99C662.03,-331.42 864.9,-299.14 869.75,-293.39 900.81,-256.53 893.5,-199.75 881.68,-158.15"/>
<polygon fill="green" stroke="green" stroke-width="0.45" points="885,-157.03 878.77,-148.46 878.3,-159.04 885,-157.03"/>
</g>
<!-- linear velocity Y&#45;&gt;fire left orientation engine -->
<g id="edge12" class="edge">
<title>linear velocity Y&#45;&gt;fire left orientation engine</title>
<path fill="none" stroke="green" stroke-width="0.69" d="M505.51,-345.03C485.28,-334.94 451.48,-316.21 427.75,-293.39 399.16,-265.89 373.21,-231.1 352.21,-198.91"/>
<polygon fill="green" stroke="green" stroke-width="0.69" points="355.05,-196.87 346.7,-190.36 349.17,-200.66 355.05,-196.87"/>
</g>
<!-- fire main engine -->
<g id="node11" class="node">
<title>fire main engine</title>
<ellipse fill="lightblue" stroke="black" cx="479.75" cy="-103.94" rx="65.11" ry="65.11"/>
<text text-anchor="middle" x="479.75" y="-101.74" font-family="Times,serif" font-size="9.00">fire main engine</text>
</g>
<!-- linear velocity Y&#45;&gt;fire main engine -->
<g id="edge8" class="edge">
<title>linear velocity Y&#45;&gt;fire main engine</title>
<path fill="none" stroke="red" stroke-width="0.64" d="M503.17,-345.11C483.56,-335.87 454.51,-318.66 441.75,-293.39 422.61,-255.49 431.88,-208.72 446.04,-171.26"/>
<polygon fill="red" stroke="red" stroke-width="0.64" points="449.31,-172.53 449.74,-161.94 442.8,-169.95 449.31,-172.53"/>
</g>
<!-- 360 -->
<g id="node14" class="node">
<title>360</title>
<ellipse fill="white" stroke="black" cx="835.75" cy="-268.64" rx="25" ry="25"/>
<text text-anchor="middle" x="835.75" y="-266.44" font-family="Times,serif" font-size="9.00">360</text>
</g>
<!-- linear velocity Y&#45;&gt;360 -->
<g id="edge19" class="edge">
<title>linear velocity Y&#45;&gt;360</title>
<path fill="none" stroke="green" stroke-width="0.35" d="M568.85,-345.55C636.84,-333.98 760.41,-311.37 801.75,-293.39 803.84,-292.48 805.94,-291.43 808,-290.29"/>
<polygon fill="green" stroke="green" stroke-width="0.35" points="810.1,-293.11 816.76,-284.87 806.42,-287.15 810.1,-293.11"/>
</g>
<!-- angle -->
<g id="node5" class="node">
<title>angle</title>
<polygon fill="lightgray" stroke="black" points="602.75,-277.64 560.75,-277.64 560.75,-259.64 602.75,-259.64 602.75,-277.64"/>
<text text-anchor="middle" x="581.75" y="-266.44" font-family="Times,serif" font-size="9.00">angle</text>
</g>
<!-- angle&#45;&gt;fire right orientation engine -->
<g id="edge13" class="edge">
<title>angle&#45;&gt;fire right orientation engine</title>
<path fill="none" stroke="green" stroke-width="0.64" d="M586.08,-259.35C591.79,-248.43 602.48,-227.95 614.26,-205.4"/>
<polygon fill="green" stroke="green" stroke-width="0.64" points="617.47,-206.82 619,-196.33 611.27,-203.57 617.47,-206.82"/>
</g>
<!-- angular velocity -->
<g id="node6" class="node">
<title>angular velocity</title>
<polygon fill="lightgray" stroke="black" points="542.75,-277.64 450.75,-277.64 450.75,-259.64 542.75,-259.64 542.75,-277.64"/>
<text text-anchor="middle" x="496.75" y="-266.44" font-family="Times,serif" font-size="9.00">angular velocity</text>
</g>
<!-- angular velocity&#45;&gt;fire left orientation engine -->
<g id="edge1" class="edge">
<title>angular velocity&#45;&gt;fire left orientation engine</title>
<path fill="none" stroke="red" stroke-width="0.58" d="M482.63,-259.49C464.26,-248.63 431.45,-228.4 405.75,-207.89 395.37,-199.61 384.84,-190.49 374.64,-181.21"/>
<polygon fill="red" stroke="red" stroke-width="0.58" points="377,-178.63 367.27,-174.44 372.26,-183.78 377,-178.63"/>
</g>
<!-- angular velocity&#45;&gt;fire main engine -->
<g id="edge6" class="edge">
<title>angular velocity&#45;&gt;fire main engine</title>
<path fill="none" stroke="red" stroke-width="0.18" d="M495.88,-259.35C494.31,-244.27 490.83,-210.98 487.5,-179.16"/>
<polygon fill="red" stroke="red" stroke-width="0.18" points="490.95,-178.49 486.43,-168.91 483.99,-179.22 490.95,-178.49"/>
</g>
<!-- angular velocity&#45;&gt;fire right orientation engine -->
<g id="edge16" class="edge">
<title>angular velocity&#45;&gt;fire right orientation engine</title>
<path fill="none" stroke="green" stroke-width="0.12" d="M505.41,-259.35C520.38,-245.02 552.55,-214.24 584.24,-183.9"/>
<polygon fill="green" stroke="green" stroke-width="0.12" points="587.05,-186.07 591.85,-176.62 582.21,-181.01 587.05,-186.07"/>
</g>
<!-- left leg ground contact -->
<g id="node7" class="node">
<title>left leg ground contact</title>
<polygon fill="lightgray" stroke="black" points="177.25,-432.88 54.25,-432.88 54.25,-414.88 177.25,-414.88 177.25,-432.88"/>
<text text-anchor="middle" x="115.75" y="-421.68" font-family="Times,serif" font-size="9.00">left leg ground contact</text>
</g>
<!-- left leg ground contact&#45;&gt;do nothing -->
<g id="edge3" class="edge">
<title>left leg ground contact&#45;&gt;do nothing</title>
<path fill="none" stroke="green" stroke-width="0.28" stroke-dasharray="1,5" d="M177.27,-421.53C314.04,-418.04 639.62,-406.97 745.75,-378.88 830.59,-356.43 877.02,-367.67 923.75,-293.39 952,-248.48 923.8,-189.39 896.86,-149.44"/>
<polygon fill="green" stroke="green" stroke-width="0.28" points="899.73,-147.43 891.15,-141.22 893.98,-151.43 899.73,-147.43"/>
</g>
<!-- left leg ground contact&#45;&gt;fire left orientation engine -->
<g id="edge14" class="edge">
<title>left leg ground contact&#45;&gt;fire left orientation engine</title>
<path fill="none" stroke="red" stroke-width="0.59" d="M114.59,-414.78C111.21,-388.36 103.46,-302.99 134.75,-243.89 151.59,-212.07 179.03,-184.5 206.69,-162.5"/>
<polygon fill="red" stroke="red" stroke-width="0.59" points="209.12,-165.04 214.88,-156.14 204.83,-159.51 209.12,-165.04"/>
</g>
<!-- 294 -->
<g id="node13" class="node">
<title>294</title>
<ellipse fill="white" stroke="black" cx="62.75" cy="-268.64" rx="25" ry="25"/>
<text text-anchor="middle" x="62.75" y="-266.44" font-family="Times,serif" font-size="9.00">294</text>
</g>
<!-- left leg ground contact&#45;&gt;294 -->
<g id="edge17" class="edge">
<title>left leg ground contact&#45;&gt;294</title>
<path fill="none" stroke="green" stroke-width="0.13" stroke-dasharray="1,5" d="M112.9,-414.65C105.67,-393.73 86.29,-337.71 73.85,-301.74"/>
<polygon fill="green" stroke="green" stroke-width="0.13" points="77.12,-300.47 70.54,-292.17 70.5,-302.76 77.12,-300.47"/>
</g>
<!-- 388 -->
<g id="node15" class="node">
<title>388</title>
<ellipse fill="white" stroke="black" cx="711.75" cy="-354.14" rx="25" ry="25"/>
<text text-anchor="middle" x="711.75" y="-351.94" font-family="Times,serif" font-size="9.00">388</text>
</g>
<!-- left leg ground contact&#45;&gt;388 -->
<g id="edge21" class="edge">
<title>left leg ground contact&#45;&gt;388</title>
<path fill="none" stroke="green" stroke-width="0.32" d="M177.58,-418.58C266.38,-412.05 435.04,-398.29 577.75,-378.88 611.85,-374.25 650.53,-367.2 677.53,-361.98"/>
<polygon fill="green" stroke="green" stroke-width="0.32" points="678.49,-365.36 687.63,-360.01 677.15,-358.49 678.49,-365.36"/>
</g>
<!-- 433 -->
<g id="node16" class="node">
<title>433</title>
<ellipse fill="white" stroke="black" cx="24.75" cy="-354.14" rx="25" ry="25"/>
<text text-anchor="middle" x="24.75" y="-351.94" font-family="Times,serif" font-size="9.00">433</text>
</g>
<!-- left leg ground contact&#45;&gt;433 -->
<g id="edge23" class="edge">
<title>left leg ground contact&#45;&gt;433</title>
<path fill="none" stroke="green" stroke-width="0.17" d="M104.95,-414.85C92.09,-405.27 70.11,-388.9 52.41,-375.73"/>
<polygon fill="green" stroke="green" stroke-width="0.17" points="54.23,-372.72 44.12,-369.56 50.05,-378.34 54.23,-372.72"/>
</g>
<!-- right leg ground contact -->
<g id="node8" class="node">
<title>right leg ground contact</title>
<polygon fill="lightgray" stroke="black" points="275.25,-277.64 144.25,-277.64 144.25,-259.64 275.25,-259.64 275.25,-277.64"/>
<text text-anchor="middle" x="209.75" y="-266.44" font-family="Times,serif" font-size="9.00">right leg ground contact</text>
</g>
<!-- right leg ground contact&#45;&gt;fire left orientation engine -->
<g id="edge4" class="edge">
<title>right leg ground contact&#45;&gt;fire left orientation engine</title>
<path fill="none" stroke="green" stroke-width="0.59" d="M214.28,-259.35C220.78,-247.47 233.46,-224.3 247.06,-199.44"/>
<polygon fill="green" stroke="green" stroke-width="0.59" points="250.17,-201.05 251.9,-190.59 244.03,-197.69 250.17,-201.05"/>
</g>
<!-- 294&#45;&gt;fire left orientation engine -->
<g id="edge18" class="edge">
<title>294&#45;&gt;fire left orientation engine</title>
<path fill="none" stroke="green" stroke-width="0.13" d="M82.87,-253.77C110.95,-234.41 163.64,-198.08 209.94,-166.17"/>
<polygon fill="green" stroke="green" stroke-width="0.13" points="211.96,-169.03 218.21,-160.47 207.99,-163.26 211.96,-169.03"/>
</g>
<!-- 360&#45;&gt;do nothing -->
<g id="edge20" class="edge">
<title>360&#45;&gt;do nothing</title>
<path fill="none" stroke="green" stroke-width="0.23" d="M839.53,-243.98C842.99,-222.32 848.25,-189.41 852.78,-161.04"/>
<polygon fill="green" stroke="green" stroke-width="0.23" points="856.29,-161.26 854.42,-150.83 849.38,-160.15 856.29,-161.26"/>
</g>
<!-- 388&#45;&gt;do nothing -->
<g id="edge22" class="edge">
<title>388&#45;&gt;do nothing</title>
<path fill="none" stroke="green" stroke-width="0.31" d="M736.83,-353.87C779.19,-353.57 864.07,-346.02 902.75,-293.39 932.7,-252.63 913.03,-194.35 891.86,-153.42"/>
<polygon fill="green" stroke="green" stroke-width="0.31" points="894.86,-151.61 887.06,-144.45 888.69,-154.92 894.86,-151.61"/>
</g>
<!-- 433&#45;&gt;294 -->
<g id="edge24" class="edge">
<title>433&#45;&gt;294</title>
<path fill="none" stroke="red" stroke-width="0.29" d="M34.73,-331.2C38.97,-321.9 43.98,-310.89 48.58,-300.77"/>
<polygon fill="red" stroke="red" stroke-width="0.29" points="51.87,-301.98 52.83,-291.43 45.5,-299.08 51.87,-301.98"/>
</g>
</g>
</svg>
